<svg width="819" height="216" viewBox="0 0 819 216" fill="none" xmlns="http://www.w3.org/2000/svg">
<path d="M15.84 50.09H50.99V15.04C50.99 8.78997 45.91 3.71997 39.64 3.71997C33.37 3.71997 28.29 8.78997 28.29 15.04V27.46H15.84C9.57 27.46 4.49 32.53 4.49 38.78C4.49 45.03 9.57 50.1 15.84 50.1V50.09Z" fill="#08529C"/>
<path d="M82.64 65.23L114.2 115.82H114.41V65.23H129.98V140.64H113.35L81.89 90.15H81.68V140.64H66.11V65.23H82.63H82.64Z" fill="#08529C"/>
<path d="M137.81 102.83C138.02 99.31 138.9 96.39 140.46 94.06C142.01 91.74 143.99 89.87 146.39 88.46C148.79 87.05 151.49 86.05 154.49 85.45C157.49 84.85 160.51 84.55 163.55 84.55C166.3 84.55 169.09 84.74 171.92 85.13C174.74 85.52 177.32 86.28 179.65 87.4C181.98 88.53 183.89 90.09 185.37 92.1C186.85 94.11 187.59 96.77 187.59 100.07V128.48C187.59 130.95 187.73 133.3 188.01 135.56C188.29 137.81 188.79 139.5 189.49 140.63H174.24C173.96 139.78 173.73 138.92 173.55 138.04C173.37 137.16 173.25 136.26 173.18 135.35C170.78 137.82 167.95 139.54 164.71 140.53C161.46 141.52 158.14 142.01 154.75 142.01C152.14 142.01 149.7 141.69 147.44 141.06C145.18 140.43 143.2 139.44 141.51 138.1C139.82 136.76 138.49 135.07 137.54 133.03C136.59 130.99 136.11 128.56 136.11 125.74C136.11 122.64 136.66 120.09 137.75 118.08C138.84 116.07 140.26 114.47 141.99 113.27C143.72 112.07 145.7 111.18 147.92 110.58C150.14 109.98 152.39 109.51 154.65 109.15C156.91 108.8 159.13 108.52 161.32 108.3C163.51 108.09 165.45 107.77 167.15 107.35C168.84 106.93 170.19 106.31 171.17 105.5C172.16 104.69 172.62 103.51 172.55 101.96C172.55 100.34 172.29 99.06 171.76 98.1C171.23 97.15 170.52 96.41 169.64 95.88C168.76 95.35 167.73 95 166.57 94.82C165.4 94.65 164.15 94.56 162.81 94.56C159.84 94.56 157.51 95.19 155.82 96.46C154.13 97.73 153.14 99.84 152.85 102.8H137.81V102.83ZM172.55 113.92C171.91 114.48 171.12 114.92 170.17 115.24C169.22 115.56 168.19 115.82 167.1 116.03C166 116.24 164.86 116.42 163.66 116.56C162.46 116.7 161.26 116.88 160.06 117.09C158.93 117.3 157.82 117.58 156.72 117.94C155.62 118.29 154.67 118.77 153.86 119.37C153.05 119.97 152.39 120.73 151.9 121.64C151.4 122.56 151.16 123.72 151.16 125.13C151.16 126.54 151.41 127.6 151.9 128.51C152.39 129.43 153.06 130.15 153.91 130.68C154.76 131.21 155.75 131.58 156.88 131.79C158.01 132 159.17 132.11 160.38 132.11C163.35 132.11 165.64 131.62 167.26 130.63C168.88 129.64 170.08 128.46 170.86 127.09C171.64 125.72 172.11 124.33 172.29 122.92C172.47 121.51 172.55 120.39 172.55 119.54V113.94V113.92Z" fill="#08529C"/>
<path d="M211.57 86.03V96.17H211.78C212.49 94.48 213.44 92.91 214.64 91.47C215.84 90.03 217.22 88.79 218.77 87.77C220.32 86.75 221.98 85.96 223.75 85.39C225.51 84.83 227.35 84.55 229.26 84.55C230.25 84.55 231.34 84.73 232.54 85.08V99.02C231.83 98.88 230.99 98.76 230 98.65C229.01 98.54 228.06 98.49 227.14 98.49C224.39 98.49 222.06 98.95 220.15 99.86C218.24 100.78 216.71 102.03 215.54 103.61C214.37 105.19 213.54 107.04 213.05 109.16C212.56 111.27 212.31 113.56 212.31 116.03V140.64H197.27V86.03H211.57Z" fill="#08529C"/>
<path d="M240.08 102.83C240.29 99.31 241.17 96.39 242.73 94.06C244.28 91.74 246.26 89.87 248.66 88.46C251.06 87.05 253.76 86.05 256.76 85.45C259.76 84.85 262.78 84.55 265.82 84.55C268.57 84.55 271.36 84.74 274.19 85.13C277.01 85.52 279.59 86.28 281.92 87.4C284.25 88.53 286.16 90.09 287.64 92.1C289.12 94.11 289.86 96.77 289.86 100.07V128.48C289.86 130.95 290 133.3 290.28 135.56C290.56 137.81 291.06 139.5 291.76 140.63H276.51C276.23 139.78 276 138.92 275.82 138.04C275.64 137.16 275.52 136.26 275.45 135.35C273.05 137.82 270.22 139.54 266.98 140.53C263.73 141.52 260.41 142.01 257.02 142.01C254.41 142.01 251.97 141.69 249.71 141.06C247.45 140.43 245.47 139.44 243.78 138.1C242.09 136.76 240.76 135.07 239.81 133.03C238.86 130.99 238.38 128.56 238.38 125.74C238.38 122.64 238.93 120.09 240.02 118.08C241.11 116.07 242.53 114.47 244.26 113.27C245.99 112.07 247.97 111.18 250.19 110.58C252.41 109.98 254.66 109.51 256.92 109.15C259.18 108.8 261.4 108.52 263.59 108.3C265.78 108.09 267.72 107.77 269.42 107.35C271.11 106.93 272.46 106.31 273.44 105.5C274.43 104.69 274.89 103.51 274.82 101.96C274.82 100.34 274.56 99.06 274.03 98.1C273.5 97.15 272.79 96.41 271.91 95.88C271.03 95.35 270 95 268.84 94.82C267.67 94.65 266.42 94.56 265.08 94.56C262.11 94.56 259.78 95.19 258.09 96.46C256.4 97.73 255.41 99.84 255.12 102.8H240.08V102.83ZM274.83 113.92C274.19 114.48 273.4 114.92 272.45 115.24C271.5 115.56 270.47 115.82 269.38 116.03C268.28 116.24 267.14 116.42 265.94 116.56C264.74 116.7 263.54 116.88 262.34 117.09C261.21 117.3 260.1 117.58 259 117.94C257.9 118.29 256.95 118.77 256.14 119.37C255.33 119.97 254.67 120.73 254.18 121.64C253.68 122.56 253.44 123.72 253.44 125.13C253.44 126.54 253.69 127.6 254.18 128.51C254.67 129.43 255.34 130.15 256.19 130.68C257.04 131.21 258.03 131.58 259.16 131.79C260.29 132 261.45 132.11 262.66 132.11C265.63 132.11 267.92 131.62 269.54 130.63C271.16 129.64 272.36 128.46 273.14 127.09C273.92 125.72 274.39 124.33 274.57 122.92C274.75 121.51 274.83 120.39 274.83 119.54V113.94V113.92Z" fill="#08529C"/>
<path d="M320.88 156.9C317.98 158.8 313.96 159.75 308.81 159.75C307.26 159.75 305.72 159.7 304.2 159.59C302.68 159.48 301.15 159.36 299.59 159.22V146.86C301 147 302.45 147.14 303.93 147.28C305.41 147.42 306.9 147.46 308.38 147.39C310.36 147.18 311.82 146.4 312.78 145.07C313.73 143.73 314.21 142.25 314.21 140.63C314.21 139.43 314 138.31 313.57 137.25L294.4 86.02H310.39L322.78 123.41H322.99L334.96 86.02H350.53L327.65 147.39C326.02 151.83 323.77 154.99 320.87 156.9H320.88Z" fill="#08529C"/>
<path d="M354.45 102.83C354.66 99.31 355.54 96.39 357.1 94.06C358.65 91.74 360.63 89.87 363.03 88.46C365.43 87.05 368.13 86.05 371.13 85.45C374.13 84.85 377.15 84.55 380.19 84.55C382.94 84.55 385.73 84.74 388.56 85.13C391.38 85.52 393.96 86.28 396.29 87.4C398.62 88.53 400.53 90.09 402.01 92.1C403.49 94.11 404.23 96.77 404.23 100.07V128.48C404.23 130.95 404.37 133.3 404.65 135.56C404.93 137.81 405.43 139.5 406.13 140.63H390.88C390.6 139.78 390.37 138.92 390.19 138.04C390.01 137.16 389.89 136.26 389.82 135.35C387.42 137.82 384.59 139.54 381.35 140.53C378.1 141.52 374.78 142.01 371.39 142.01C368.78 142.01 366.34 141.69 364.08 141.06C361.82 140.43 359.84 139.44 358.15 138.1C356.46 136.76 355.13 135.07 354.18 133.03C353.23 130.99 352.75 128.56 352.75 125.74C352.75 122.64 353.3 120.09 354.39 118.08C355.48 116.07 356.9 114.47 358.63 113.27C360.36 112.07 362.34 111.18 364.56 110.58C366.78 109.98 369.03 109.51 371.29 109.15C373.55 108.8 375.77 108.52 377.96 108.3C380.15 108.09 382.09 107.77 383.79 107.35C385.48 106.93 386.83 106.31 387.81 105.5C388.8 104.69 389.26 103.51 389.19 101.96C389.19 100.34 388.93 99.06 388.4 98.1C387.87 97.15 387.16 96.41 386.28 95.88C385.4 95.35 384.37 95 383.21 94.82C382.04 94.65 380.79 94.56 379.45 94.56C376.48 94.56 374.15 95.19 372.46 96.46C370.77 97.73 369.78 99.84 369.49 102.8H354.45V102.83ZM389.19 113.92C388.55 114.48 387.76 114.92 386.81 115.24C385.86 115.56 384.83 115.82 383.74 116.03C382.64 116.24 381.5 116.42 380.3 116.56C379.1 116.7 377.9 116.88 376.7 117.09C375.57 117.3 374.46 117.58 373.36 117.94C372.26 118.29 371.31 118.77 370.5 119.37C369.69 119.97 369.03 120.73 368.54 121.64C368.04 122.56 367.8 123.72 367.8 125.13C367.8 126.54 368.05 127.6 368.54 128.51C369.03 129.43 369.7 130.15 370.55 130.68C371.4 131.21 372.39 131.58 373.52 131.79C374.65 132 375.81 132.11 377.02 132.11C379.99 132.11 382.28 131.62 383.9 130.63C385.52 129.64 386.72 128.46 387.5 127.09C388.28 125.72 388.75 124.33 388.93 122.92C389.11 121.51 389.19 120.39 389.19 119.54V113.94V113.92Z" fill="#08529C"/>
<path d="M428.21 86.03V93.63H428.53C430.44 90.46 432.91 88.16 435.94 86.71C438.98 85.27 442.08 84.54 445.26 84.54C449.28 84.54 452.58 85.09 455.16 86.18C457.74 87.27 459.77 88.79 461.25 90.72C462.73 92.66 463.77 95.02 464.37 97.8C464.97 100.58 465.27 103.66 465.27 107.04V140.63H450.23V109.79C450.23 105.28 449.52 101.92 448.11 99.7C446.7 97.48 444.19 96.37 440.59 96.37C436.49 96.37 433.53 97.58 431.69 100.01C429.85 102.44 428.94 106.44 428.94 112V140.62H413.9V86.01H428.2L428.21 86.03Z" fill="#08529C"/>
<path d="M473.07 102.83C473.28 99.31 474.16 96.39 475.72 94.06C477.27 91.74 479.25 89.87 481.65 88.46C484.05 87.05 486.75 86.05 489.75 85.45C492.75 84.85 495.77 84.55 498.81 84.55C501.56 84.55 504.35 84.74 507.18 85.13C510 85.52 512.58 86.28 514.91 87.4C517.24 88.53 519.15 90.09 520.63 92.1C522.11 94.11 522.85 96.77 522.85 100.07V128.48C522.85 130.95 522.99 133.3 523.27 135.56C523.55 137.81 524.05 139.5 524.75 140.63H509.5C509.22 139.78 508.99 138.92 508.81 138.04C508.63 137.16 508.51 136.26 508.44 135.35C506.04 137.82 503.21 139.54 499.97 140.53C496.72 141.52 493.4 142.01 490.01 142.01C487.4 142.01 484.96 141.69 482.7 141.06C480.44 140.43 478.46 139.44 476.77 138.1C475.08 136.76 473.75 135.07 472.8 133.03C471.85 130.99 471.37 128.56 471.37 125.74C471.37 122.64 471.92 120.09 473.01 118.08C474.1 116.07 475.52 114.47 477.25 113.27C478.98 112.07 480.96 111.18 483.18 110.58C485.4 109.98 487.65 109.51 489.91 109.15C492.17 108.8 494.39 108.52 496.58 108.3C498.77 108.09 500.71 107.77 502.41 107.35C504.1 106.93 505.45 106.31 506.43 105.5C507.42 104.69 507.88 103.51 507.81 101.96C507.81 100.34 507.54 99.06 507.02 98.1C506.49 97.15 505.78 96.41 504.9 95.88C504.02 95.35 502.99 95 501.83 94.82C500.66 94.65 499.41 94.56 498.07 94.56C495.1 94.56 492.77 95.19 491.08 96.46C489.39 97.73 488.4 99.84 488.11 102.8H473.07V102.83ZM507.81 113.92C507.17 114.48 506.38 114.92 505.43 115.24C504.48 115.56 503.45 115.82 502.36 116.03C501.26 116.24 500.12 116.42 498.92 116.56C497.72 116.7 496.52 116.88 495.32 117.09C494.19 117.3 493.08 117.58 491.98 117.94C490.88 118.29 489.93 118.77 489.12 119.37C488.31 119.97 487.65 120.73 487.16 121.64C486.66 122.56 486.42 123.72 486.42 125.13C486.42 126.54 486.67 127.6 487.16 128.51C487.65 129.43 488.33 130.15 489.17 130.68C490.02 131.21 491.01 131.58 492.14 131.79C493.27 132 494.43 132.11 495.64 132.11C498.61 132.11 500.9 131.62 502.53 130.63C504.15 129.64 505.35 128.46 506.13 127.09C506.91 125.72 507.38 124.33 507.56 122.92C507.74 121.51 507.83 120.39 507.83 119.54V113.94L507.81 113.92Z" fill="#08529C"/>
<path d="M66.12 15.04V50.09H101.27C107.54 50.09 112.62 45.02 112.62 38.77C112.62 32.52 107.54 27.45 101.27 27.45H88.82V15.03C88.82 8.78002 83.74 3.71002 77.47 3.71002C71.2 3.71002 66.12 8.78002 66.12 15.03V15.04Z" fill="#E82329"/>
<path d="M50.99 100.22V65.17H15.84C9.57 65.17 4.49 70.24 4.49 76.49C4.49 82.74 9.57 87.81 15.84 87.81H28.29V100.23C28.29 106.48 33.37 111.55 39.64 111.55C45.91 111.55 50.99 106.48 50.99 100.23V100.22Z" fill="#E82329"/>
<path d="M76.09 163.31V180.67H94.46V163.31H104.44V208.56H94.46V189.04H76.09V208.56H66.11V163.31H76.09Z" fill="#E82329"/>
<path d="M120.65 200.7C122.01 202.01 123.95 202.66 126.5 202.66C128.32 202.66 129.89 202.21 131.2 201.3C132.51 200.39 133.32 199.43 133.62 198.42H141.56C140.29 202.35 138.34 205.16 135.71 206.85C133.08 208.54 129.9 209.38 126.18 209.38C123.6 209.38 121.26 208.97 119.19 208.14C117.11 207.32 115.35 206.14 113.91 204.62C112.47 203.1 111.36 201.28 110.57 199.17C109.79 197.06 109.39 194.73 109.39 192.2C109.39 189.67 109.79 187.47 110.6 185.35C111.4 183.24 112.55 181.41 114.03 179.87C115.51 178.33 117.28 177.11 119.34 176.23C121.39 175.34 123.67 174.9 126.17 174.9C128.97 174.9 131.4 175.44 133.48 176.52C135.56 177.6 137.26 179.04 138.6 180.86C139.93 182.68 140.9 184.75 141.49 187.07C142.08 189.39 142.29 191.82 142.13 194.36H118.42C118.55 197.28 119.29 199.39 120.64 200.7H120.65ZM130.85 183.46C129.77 182.28 128.13 181.69 125.92 181.69C124.48 181.69 123.28 181.93 122.33 182.42C121.38 182.91 120.61 183.51 120.04 184.23C119.47 184.95 119.06 185.71 118.83 186.51C118.6 187.31 118.46 188.03 118.42 188.66H133.1C132.68 186.38 131.92 184.65 130.84 183.46H130.85Z" fill="#E82329"/>
<path d="M147.12 185.87C147.25 183.76 147.78 182 148.71 180.61C149.64 179.22 150.83 178.1 152.27 177.25C153.71 176.41 155.33 175.8 157.13 175.44C158.93 175.08 160.74 174.9 162.56 174.9C164.21 174.9 165.89 175.02 167.58 175.25C169.27 175.48 170.82 175.94 172.22 176.61C173.62 177.29 174.76 178.23 175.65 179.43C176.54 180.63 176.98 182.23 176.98 184.21V201.26C176.98 202.74 177.06 204.15 177.23 205.51C177.4 206.86 177.7 207.88 178.12 208.55H168.97C168.8 208.04 168.66 207.53 168.56 207C168.45 206.47 168.38 205.93 168.34 205.38C166.9 206.86 165.2 207.89 163.26 208.48C161.31 209.07 159.32 209.37 157.29 209.37C155.72 209.37 154.26 209.18 152.9 208.8C151.54 208.42 150.36 207.83 149.34 207.03C148.32 206.23 147.53 205.21 146.96 203.99C146.39 202.77 146.1 201.31 146.1 199.62C146.1 197.76 146.43 196.23 147.09 195.03C147.75 193.83 148.59 192.87 149.63 192.15C150.67 191.43 151.85 190.89 153.19 190.53C154.52 190.17 155.87 189.89 157.23 189.67C158.59 189.46 159.92 189.29 161.23 189.16C162.54 189.03 163.71 188.84 164.73 188.59C165.75 188.34 166.55 187.97 167.15 187.48C167.74 186.99 168.02 186.29 167.98 185.36C167.98 184.39 167.82 183.62 167.5 183.05C167.18 182.48 166.76 182.04 166.23 181.72C165.7 181.4 165.09 181.19 164.39 181.09C163.69 180.99 162.94 180.93 162.13 180.93C160.35 180.93 158.95 181.31 157.94 182.07C156.92 182.83 156.33 184.1 156.16 185.87H147.14H147.12ZM167.96 192.53C167.58 192.87 167.1 193.13 166.53 193.32C165.96 193.51 165.34 193.67 164.69 193.8C164.03 193.93 163.34 194.03 162.62 194.12C161.9 194.21 161.18 194.31 160.46 194.44C159.78 194.57 159.11 194.74 158.46 194.95C157.8 195.16 157.23 195.45 156.74 195.81C156.25 196.17 155.86 196.62 155.56 197.17C155.26 197.72 155.12 198.42 155.12 199.26C155.12 200.1 155.27 200.74 155.56 201.29C155.86 201.84 156.26 202.27 156.77 202.59C157.28 202.91 157.87 203.13 158.55 203.26C159.23 203.39 159.93 203.45 160.65 203.45C162.43 203.45 163.81 203.15 164.78 202.56C165.75 201.97 166.47 201.26 166.94 200.44C167.41 199.62 167.69 198.78 167.8 197.94C167.91 197.1 167.96 196.42 167.96 195.91V192.55V192.53Z" fill="#E82329"/>
<path d="M191.98 163.31V208.56H182.96V163.31H191.98Z" fill="#E82329"/>
<path d="M217.91 175.79V181.81H211.3V198.03C211.3 199.55 211.55 200.57 212.06 201.07C212.57 201.58 213.59 201.83 215.11 201.83C215.62 201.83 216.1 201.81 216.57 201.77C217.04 201.73 217.48 201.66 217.9 201.58V208.55C217.14 208.68 216.29 208.76 215.36 208.8C214.43 208.84 213.52 208.86 212.63 208.86C211.23 208.86 209.91 208.77 208.66 208.57C207.41 208.38 206.31 208.01 205.36 207.46C204.41 206.91 203.65 206.13 203.1 205.11C202.55 204.1 202.27 202.77 202.27 201.12V181.79H196.8V175.77H202.27V165.95H211.29V175.77H217.9L217.91 175.79Z" fill="#E82329"/>
<path d="M231.77 163.31V180.36H231.96C233.1 178.46 234.57 177.08 236.35 176.21C238.13 175.34 239.87 174.91 241.56 174.91C243.98 174.91 245.96 175.24 247.5 175.89C249.05 176.55 250.26 177.45 251.15 178.62C252.04 179.78 252.66 181.2 253.02 182.87C253.38 184.54 253.56 186.39 253.56 188.42V208.57H244.54V190.06C244.54 187.36 244.12 185.34 243.27 184.01C242.42 182.68 240.92 182.01 238.76 182.01C236.3 182.01 234.52 182.74 233.42 184.2C232.32 185.66 231.77 188.06 231.77 191.39V208.56H222.75V163.31H231.77Z" fill="#E82329"/>
<path d="M571.13 20.32V197.98" stroke="#A6A7AA" stroke-width="2.02" stroke-miterlimit="10"/>
<path d="M717.88 148.55H626.72V160.1H731.05C726.08 156.95 721.63 153.05 717.88 148.55Z" fill="#07509D"/>
<path d="M664.27 20.32C645.22 20.32 628.8 31.55 621.24 47.75H633.14C639.73 37.53 651.2 30.75 664.27 30.75C684.72 30.75 701.29 47.32 701.29 67.77C701.29 75.13 699.14 81.97 695.44 87.74L697.74 93.4C697.74 93.4 689.67 105.49 675.66 113.85C696.37 108.75 711.73 90.06 711.73 67.78C711.73 41.57 690.48 20.32 664.27 20.32Z" fill="#EC1C24"/>
<path d="M701.25 69.54H711.69C711.71 68.95 711.73 68.37 711.73 67.78C711.73 41.57 690.48 20.32 664.27 20.32C640.95 20.32 621.58 37.14 617.58 59.31H628.24C632.07 42.95 646.75 30.76 664.27 30.76C684.72 30.76 701.29 47.33 701.29 67.78C701.29 68.37 701.27 68.96 701.25 69.54Z" fill="#EC1C24"/>
<path d="M625.19 160.1L625.3 157.64L623.69 153.81H618.38C618.04 155.54 617.69 157.76 617.51 160.1H625.2H625.19Z" fill="#EC1C24"/>
<path d="M700.25 76.46C700.25 76.65 699.18 96.18 660.82 110.3C651.63 113.68 641.14 118.26 633.03 126.54C623.88 135.89 618.66 147.02 617.53 159.62L622.86 160.1H628.25C629.24 150.22 633.42 141.45 640.68 134.03C647.3 127.27 656.44 123.32 664.52 120.35C684.82 112.88 696.24 103.65 702.68 95.58C708.2 87.79 710.27 79.81 710.94 76.46H700.26H700.25Z" fill="#EC1C24"/>
<path d="M740.04 31.87H800.98V20.32H731.27L717.73 92.62H728.23L740.04 31.87Z" fill="#07509D"/>
<path d="M761.01 65.18C741.96 65.18 725.55 76.41 718 92.61H731.15C737.6 83 748.56 76.67 761.01 76.67C780.86 76.67 796.94 92.76 796.94 112.6C796.94 132.44 780.85 148.53 761.01 148.53C745.76 148.53 732.73 139.02 727.52 125.61H715.41C721.07 145.47 739.34 160.03 761.02 160.03C787.21 160.03 808.45 138.8 808.45 112.6C808.45 86.4 787.22 65.17 761.02 65.17L761.01 65.18Z" fill="#EC1C24"/>
<path d="M631.73 197.44C630.52 198.75 628.62 199.41 626.04 199.41C625.29 199.41 624.52 199.33 623.74 199.16C622.96 198.99 622.25 198.72 621.61 198.35C620.97 197.97 620.45 197.48 620.03 196.88C619.61 196.27 619.38 195.53 619.34 194.66H622C622.02 195.14 622.17 195.55 622.45 195.88C622.73 196.21 623.08 196.48 623.48 196.69C623.89 196.9 624.33 197.05 624.81 197.14C625.29 197.23 625.75 197.28 626.19 197.28C627.07 197.28 627.81 197.13 628.41 196.83C629.01 196.53 629.52 196.11 629.91 195.58C630.31 195.05 630.59 194.41 630.77 193.66C630.95 192.91 631.04 192.08 631.04 191.19V190.13H630.98C630.52 191.13 629.83 191.87 628.9 192.34C627.97 192.81 626.99 193.04 625.94 193.04C624.73 193.04 623.68 192.82 622.78 192.38C621.88 191.94 621.13 191.35 620.53 190.61C619.92 189.87 619.47 189 619.17 188.01C618.87 187.02 618.72 185.97 618.72 184.87C618.72 183.91 618.85 182.92 619.1 181.91C619.35 180.9 619.77 179.98 620.35 179.16C620.93 178.34 621.71 177.66 622.67 177.13C623.63 176.6 624.81 176.33 626.21 176.33C627.23 176.33 628.17 176.55 629.03 177C629.88 177.45 630.55 178.12 631.03 179.02H631.06V176.7H633.56V191.5C633.56 194.15 632.95 196.13 631.74 197.45L631.73 197.44ZM628.33 190.16C628.95 189.79 629.44 189.31 629.82 188.72C630.2 188.13 630.47 187.45 630.65 186.7C630.83 185.95 630.92 185.2 630.92 184.45C630.92 183.74 630.84 183.04 630.67 182.35C630.5 181.66 630.24 181.04 629.87 180.49C629.5 179.94 629.03 179.49 628.45 179.16C627.87 178.83 627.16 178.66 626.32 178.66C625.48 178.66 624.74 178.82 624.13 179.14C623.53 179.46 623.03 179.9 622.64 180.44C622.25 180.98 621.97 181.61 621.79 182.32C621.61 183.03 621.52 183.77 621.52 184.54C621.52 185.27 621.59 186 621.74 186.73C621.89 187.46 622.14 188.12 622.49 188.72C622.84 189.31 623.31 189.79 623.9 190.16C624.48 190.52 625.21 190.71 626.09 190.71C626.97 190.71 627.71 190.53 628.33 190.16Z" fill="#07509D"/>
<path d="M639.11 170.53V192.87H636.45V170.53H639.11Z" fill="#07509D"/>
<path d="M642.24 181.46C642.57 180.43 643.07 179.53 643.74 178.77C644.41 178.01 645.23 177.41 646.21 176.97C647.19 176.53 648.32 176.31 649.59 176.31C650.86 176.31 652.01 176.53 652.98 176.97C653.95 177.41 654.77 178.01 655.44 178.77C656.11 179.53 656.61 180.43 656.94 181.46C657.27 182.49 657.44 183.6 657.44 184.79C657.44 185.98 657.27 187.08 656.94 188.11C656.61 189.13 656.11 190.02 655.44 190.78C654.77 191.54 653.95 192.14 652.98 192.56C652.01 192.99 650.88 193.2 649.59 193.2C648.3 193.2 647.19 192.99 646.21 192.56C645.23 192.13 644.41 191.54 643.74 190.78C643.07 190.02 642.57 189.13 642.24 188.11C641.91 187.09 641.74 185.98 641.74 184.79C641.74 183.6 641.91 182.49 642.24 181.46ZM644.95 187.41C645.21 188.17 645.57 188.81 646.03 189.32C646.49 189.83 647.03 190.22 647.64 190.49C648.26 190.76 648.91 190.9 649.6 190.9C650.29 190.9 650.94 190.77 651.56 190.49C652.18 190.22 652.71 189.83 653.17 189.32C653.63 188.81 653.99 188.17 654.25 187.41C654.51 186.65 654.64 185.78 654.64 184.8C654.64 183.82 654.51 182.95 654.25 182.19C653.99 181.43 653.63 180.79 653.17 180.27C652.71 179.75 652.17 179.35 651.56 179.08C650.94 178.81 650.29 178.67 649.6 178.67C648.91 178.67 648.26 178.81 647.64 179.08C647.02 179.35 646.49 179.75 646.03 180.27C645.57 180.79 645.21 181.43 644.95 182.19C644.69 182.95 644.56 183.82 644.56 184.8C644.56 185.78 644.69 186.65 644.95 187.41Z" fill="#07509D"/>
<path d="M662.36 176.69V180.1H662.42C663.07 178.79 663.86 177.82 664.8 177.19C665.74 176.56 666.93 176.27 668.37 176.31V179.13C667.31 179.13 666.4 179.28 665.65 179.57C664.9 179.86 664.29 180.29 663.84 180.85C663.38 181.41 663.05 182.1 662.84 182.9C662.63 183.7 662.53 184.63 662.53 185.67V192.87H659.87V176.69H662.37H662.36Z" fill="#07509D"/>
<path d="M671.15 173.78V170.53H673.81V173.78H671.15ZM673.81 176.69V192.87H671.15V176.69H673.81Z" fill="#07509D"/>
<path d="M676.94 181.46C677.27 180.43 677.77 179.53 678.44 178.77C679.11 178.01 679.93 177.41 680.91 176.97C681.89 176.53 683.02 176.31 684.29 176.31C685.56 176.31 686.71 176.53 687.68 176.97C688.65 177.41 689.47 178.01 690.14 178.77C690.81 179.53 691.31 180.43 691.64 181.46C691.97 182.49 692.14 183.6 692.14 184.79C692.14 185.98 691.97 187.08 691.64 188.11C691.31 189.13 690.81 190.02 690.14 190.78C689.47 191.54 688.65 192.14 687.68 192.56C686.71 192.99 685.58 193.2 684.29 193.2C683 193.2 681.89 192.99 680.91 192.56C679.93 192.13 679.11 191.54 678.44 190.78C677.77 190.02 677.27 189.13 676.94 188.11C676.61 187.09 676.44 185.98 676.44 184.79C676.44 183.6 676.61 182.49 676.94 181.46ZM679.65 187.41C679.91 188.17 680.27 188.81 680.73 189.32C681.19 189.83 681.73 190.22 682.34 190.49C682.96 190.76 683.61 190.9 684.3 190.9C684.99 190.9 685.64 190.77 686.26 190.49C686.88 190.22 687.41 189.83 687.87 189.32C688.33 188.81 688.69 188.17 688.95 187.41C689.21 186.65 689.34 185.78 689.34 184.8C689.34 183.82 689.21 182.95 688.95 182.19C688.69 181.43 688.33 180.79 687.87 180.27C687.41 179.75 686.87 179.35 686.26 179.08C685.64 178.81 684.99 178.67 684.3 178.67C683.61 178.67 682.96 178.81 682.34 179.08C681.72 179.35 681.19 179.75 680.73 180.27C680.27 180.79 679.91 181.43 679.65 182.19C679.39 182.95 679.26 183.82 679.26 184.8C679.26 185.78 679.39 186.65 679.65 187.41Z" fill="#07509D"/>
<path d="M705.54 192.87V190.3H705.48C704.92 191.3 704.2 192.04 703.32 192.51C702.44 192.98 701.41 193.21 700.22 193.21C699.16 193.21 698.27 193.07 697.56 192.79C696.85 192.51 696.28 192.11 695.84 191.58C695.4 191.06 695.09 190.44 694.92 189.72C694.74 189 694.65 188.2 694.65 187.33V176.69H697.31V187.64C697.31 188.64 697.6 189.43 698.19 190.02C698.77 190.6 699.58 190.9 700.6 190.9C701.41 190.9 702.12 190.78 702.71 190.52C703.3 190.26 703.8 189.92 704.2 189.46C704.6 189 704.89 188.46 705.09 187.85C705.29 187.24 705.39 186.56 705.39 185.83V176.69H708.05V192.87H705.55H705.54Z" fill="#07509D"/>
<path d="M713.45 189.26C713.7 189.67 714.03 189.99 714.44 190.23C714.85 190.47 715.31 190.64 715.82 190.75C716.33 190.85 716.86 190.91 717.4 190.91C717.82 190.91 718.26 190.88 718.71 190.82C719.16 190.76 719.59 190.64 719.98 190.48C720.37 190.31 720.68 190.07 720.93 189.74C721.18 189.41 721.31 189 721.31 188.5C721.31 187.81 721.05 187.29 720.53 186.94C720.01 186.59 719.36 186.3 718.57 186.08C717.78 185.86 716.94 185.66 716.02 185.49C715.1 185.31 714.25 185.06 713.47 184.74C712.69 184.42 712.04 183.96 711.51 183.38C710.99 182.8 710.73 181.98 710.73 180.94C710.73 180.13 710.91 179.43 711.28 178.84C711.65 178.25 712.11 177.78 712.69 177.42C713.26 177.06 713.91 176.78 714.63 176.61C715.35 176.43 716.06 176.34 716.77 176.34C717.69 176.34 718.53 176.42 719.3 176.57C720.07 176.73 720.76 177 721.35 177.38C721.94 177.77 722.42 178.29 722.77 178.94C723.12 179.59 723.33 180.42 723.4 181.4H720.74C720.7 180.88 720.56 180.45 720.33 180.1C720.1 179.76 719.81 179.48 719.45 179.27C719.1 179.06 718.7 178.91 718.28 178.82C717.86 178.73 717.42 178.68 716.98 178.68C716.58 178.68 716.18 178.71 715.77 178.77C715.36 178.83 714.99 178.94 714.66 179.1C714.33 179.26 714.05 179.47 713.85 179.73C713.64 179.99 713.54 180.33 713.54 180.75C713.54 181.21 713.7 181.59 714.03 181.89C714.36 182.19 714.77 182.44 715.27 182.64C715.77 182.84 716.33 183.01 716.96 183.14C717.59 183.28 718.21 183.42 718.84 183.56C719.51 183.71 720.16 183.88 720.8 184.09C721.44 184.3 722 184.57 722.49 184.92C722.98 185.26 723.38 185.7 723.68 186.22C723.98 186.74 724.13 187.39 724.13 188.16C724.13 189.14 723.93 189.95 723.52 190.6C723.11 191.25 722.58 191.77 721.92 192.16C721.26 192.56 720.52 192.83 719.7 192.99C718.88 193.15 718.06 193.22 717.24 193.22C716.34 193.22 715.49 193.13 714.67 192.94C713.85 192.75 713.14 192.44 712.51 192.02C711.88 191.6 711.38 191.03 711.01 190.33C710.63 189.63 710.43 188.78 710.38 187.78H713.04C713.06 188.36 713.2 188.86 713.45 189.27V189.26Z" fill="#07509D"/>
<path d="M742.12 195.03C741.81 195.82 741.5 196.49 741.2 197.03C740.9 197.57 740.56 198.02 740.2 198.36C739.83 198.7 739.43 198.95 738.98 199.11C738.53 199.27 738.01 199.34 737.43 199.34C737.12 199.34 736.8 199.32 736.49 199.28C736.18 199.24 735.87 199.17 735.58 199.06V196.62C735.81 196.72 736.08 196.81 736.38 196.89C736.68 196.97 736.94 197 737.15 197C737.69 197 738.15 196.87 738.51 196.61C738.88 196.35 739.15 195.98 739.34 195.5L740.44 192.78L734.02 176.7H737.02L741.74 189.94H741.8L746.34 176.7H749.16L742.12 195.04V195.03Z" fill="#07509D"/>
<path d="M762.23 191.84C761.02 192.76 759.5 193.22 757.66 193.22C756.37 193.22 755.25 193.01 754.3 192.6C753.35 192.19 752.55 191.6 751.91 190.85C751.27 190.1 750.78 189.2 750.45 188.16C750.12 187.12 749.94 185.98 749.9 184.75C749.9 183.52 750.09 182.39 750.46 181.37C750.84 180.35 751.36 179.46 752.04 178.71C752.72 177.96 753.52 177.38 754.45 176.96C755.38 176.54 756.4 176.34 757.5 176.34C758.94 176.34 760.13 176.64 761.08 177.23C762.03 177.82 762.79 178.58 763.36 179.5C763.93 180.42 764.33 181.42 764.55 182.5C764.77 183.58 764.86 184.62 764.82 185.6H752.71C752.69 186.31 752.77 186.98 752.96 187.62C753.15 188.26 753.45 188.82 753.87 189.31C754.29 189.8 754.82 190.19 755.47 190.48C756.12 190.77 756.88 190.92 757.75 190.92C758.88 190.92 759.8 190.66 760.52 190.14C761.24 189.62 761.71 188.83 761.94 187.76H764.57C764.22 189.58 763.43 190.94 762.22 191.86L762.23 191.84ZM761.59 181.45C761.35 180.89 761.03 180.4 760.62 179.99C760.21 179.58 759.73 179.26 759.18 179.02C758.63 178.78 758.02 178.66 757.35 178.66C756.68 178.66 756.04 178.78 755.49 179.02C754.94 179.26 754.46 179.59 754.07 180.01C753.67 180.43 753.36 180.91 753.13 181.47C752.9 182.02 752.76 182.61 752.72 183.24H762.01C761.97 182.61 761.83 182.02 761.59 181.46V181.45Z" fill="#07509D"/>
<path d="M781.92 192.81C781.46 193.08 780.83 193.22 780.01 193.22C779.32 193.22 778.77 193.03 778.37 192.64C777.96 192.25 777.76 191.62 777.76 190.75C777.03 191.63 776.18 192.26 775.21 192.64C774.24 193.03 773.19 193.22 772.07 193.22C771.34 193.22 770.65 193.14 769.99 192.97C769.33 192.8 768.76 192.54 768.28 192.19C767.8 191.84 767.42 191.37 767.14 190.8C766.86 190.23 766.72 189.53 766.72 188.72C766.72 187.8 766.88 187.05 767.19 186.47C767.5 185.89 767.91 185.41 768.43 185.05C768.94 184.68 769.52 184.41 770.18 184.22C770.84 184.03 771.51 183.88 772.2 183.75C772.93 183.6 773.62 183.5 774.28 183.42C774.94 183.34 775.52 183.24 776.02 183.11C776.52 182.98 776.92 182.78 777.21 182.52C777.5 182.26 777.65 181.88 777.65 181.38C777.65 180.8 777.54 180.33 777.32 179.97C777.1 179.62 776.82 179.34 776.48 179.16C776.14 178.98 775.75 178.85 775.32 178.78C774.89 178.72 774.47 178.69 774.05 178.69C772.92 178.69 771.98 178.9 771.23 179.33C770.48 179.76 770.07 180.57 770.01 181.76H767.35C767.39 180.76 767.6 179.91 767.98 179.22C768.36 178.53 768.86 177.97 769.48 177.55C770.11 177.12 770.82 176.81 771.62 176.63C772.42 176.44 773.28 176.35 774.2 176.35C774.93 176.35 775.66 176.4 776.37 176.51C777.09 176.61 777.74 176.83 778.33 177.15C778.91 177.47 779.38 177.93 779.74 178.51C780.1 179.09 780.27 179.85 780.27 180.79V189.1C780.27 189.72 780.31 190.18 780.38 190.47C780.45 190.76 780.7 190.91 781.12 190.91C781.35 190.91 781.62 190.87 781.93 190.79V192.86L781.92 192.81ZM777.6 184.51C777.27 184.76 776.83 184.94 776.29 185.05C775.75 185.17 775.18 185.26 774.58 185.33C773.99 185.4 773.39 185.49 772.78 185.58C772.18 185.67 771.63 185.82 771.15 186.03C770.67 186.24 770.28 186.53 769.98 186.92C769.68 187.3 769.53 187.83 769.53 188.49C769.53 188.93 769.62 189.29 769.8 189.6C769.98 189.9 770.21 190.14 770.49 190.33C770.77 190.52 771.1 190.65 771.48 190.73C771.86 190.81 772.25 190.85 772.67 190.85C773.55 190.85 774.3 190.73 774.92 190.49C775.54 190.25 776.06 189.95 776.45 189.59C776.84 189.23 777.14 188.83 777.33 188.41C777.52 187.98 777.61 187.58 777.61 187.21V184.5L777.6 184.51Z" fill="#07509D"/>
<path d="M786.8 176.69V180.1H786.86C787.51 178.79 788.3 177.82 789.24 177.19C790.18 176.56 791.37 176.27 792.81 176.31V179.13C791.75 179.13 790.84 179.28 790.09 179.57C789.34 179.86 788.73 180.29 788.28 180.85C787.82 181.41 787.49 182.1 787.28 182.9C787.07 183.7 786.97 184.63 786.97 185.67V192.87H784.31V176.69H786.81H786.8Z" fill="#07509D"/>
<path d="M796.84 189.26C797.09 189.67 797.42 189.99 797.83 190.23C798.24 190.47 798.7 190.64 799.21 190.75C799.72 190.85 800.25 190.91 800.79 190.91C801.21 190.91 801.65 190.88 802.1 190.82C802.55 190.76 802.98 190.64 803.37 190.48C803.76 190.31 804.07 190.07 804.32 189.74C804.57 189.41 804.7 189 804.7 188.5C804.7 187.81 804.44 187.29 803.92 186.94C803.4 186.59 802.75 186.3 801.96 186.08C801.17 185.86 800.33 185.66 799.41 185.49C798.49 185.31 797.64 185.06 796.86 184.74C796.08 184.42 795.43 183.96 794.9 183.38C794.38 182.8 794.12 181.98 794.12 180.94C794.12 180.13 794.3 179.43 794.67 178.84C795.04 178.25 795.5 177.78 796.08 177.42C796.65 177.06 797.3 176.78 798.02 176.61C798.74 176.43 799.45 176.34 800.16 176.34C801.08 176.34 801.92 176.42 802.69 176.57C803.46 176.73 804.15 177 804.74 177.38C805.33 177.77 805.81 178.29 806.16 178.94C806.51 179.59 806.72 180.42 806.79 181.4H804.13C804.09 180.88 803.95 180.45 803.72 180.1C803.49 179.76 803.2 179.48 802.84 179.27C802.49 179.06 802.09 178.91 801.67 178.82C801.25 178.73 800.81 178.68 800.37 178.68C799.97 178.68 799.57 178.71 799.16 178.77C798.75 178.83 798.38 178.94 798.05 179.1C797.72 179.26 797.44 179.47 797.24 179.73C797.03 179.99 796.93 180.33 796.93 180.75C796.93 181.21 797.09 181.59 797.42 181.89C797.75 182.19 798.16 182.44 798.66 182.64C799.16 182.84 799.72 183.01 800.35 183.14C800.98 183.28 801.6 183.42 802.23 183.56C802.9 183.71 803.55 183.88 804.19 184.09C804.83 184.3 805.39 184.57 805.88 184.92C806.37 185.26 806.77 185.7 807.07 186.22C807.37 186.74 807.52 187.39 807.52 188.16C807.52 189.14 807.32 189.95 806.91 190.6C806.5 191.25 805.97 191.77 805.31 192.16C804.65 192.56 803.91 192.83 803.09 192.99C802.27 193.15 801.45 193.22 800.63 193.22C799.73 193.22 798.88 193.13 798.06 192.94C797.24 192.75 796.53 192.44 795.9 192.02C795.27 191.6 794.77 191.03 794.4 190.33C794.02 189.63 793.82 188.78 793.77 187.78H796.43C796.45 188.36 796.59 188.86 796.84 189.27V189.26Z" fill="#07509D"/>
</svg>
