<svg version="1.2" xmlns="http://www.w3.org/2000/svg" viewBox="0 0 354 138" width="354" height="138">
	<defs>
		<linearGradient id="g1" x2="1" gradientUnits="userSpaceOnUse" gradientTransform="matrix(71.56,0,0,1.219,68.02,114.84)">
			<stop offset="0" stop-color="#1161b4"/>
			<stop offset=".19" stop-color="#1161b4"/>
			<stop offset=".52" stop-color="#6ed4d6"/>
			<stop offset=".67" stop-color="#28acd3"/>
			<stop offset=".98" stop-color="#4eb5a0"/>
			<stop offset="1" stop-color="#4eb5a0"/>
		</linearGradient>
		<linearGradient id="g2" x2="1" gradientUnits="userSpaceOnUse" gradientTransform="matrix(71.58,0,0,1.22,139.58,114.84)">
			<stop offset="0" stop-color="#ffca40"/>
			<stop offset=".09" stop-color="#fbb237"/>
			<stop offset=".87" stop-color="#c32d19"/>
			<stop offset="1" stop-color="#7b1719"/>
		</linearGradient>
		<linearGradient id="g3" x2="1" gradientUnits="userSpaceOnUse" gradientTransform="matrix(71.58,0,0,1.22,211.16,114.84)">
			<stop offset="0" stop-color="#1161b4"/>
			<stop offset=".19" stop-color="#1161b4"/>
			<stop offset=".52" stop-color="#6ed4d6"/>
			<stop offset=".67" stop-color="#28acd3"/>
			<stop offset=".98" stop-color="#4eb5a0"/>
			<stop offset="1" stop-color="#4eb5a0"/>
		</linearGradient>
		<linearGradient id="g4" x2="1" gradientUnits="userSpaceOnUse" gradientTransform="matrix(10.12,-12.38,2.017,1.649,64.1,17.46)">
			<stop offset="0" stop-color="#ffce3b"/>
			<stop offset=".09" stop-color="#ffb932"/>
			<stop offset=".87" stop-color="#c5301b"/>
			<stop offset="1" stop-color="#862926"/>
		</linearGradient>
		<linearGradient id="g5" x2="1" gradientUnits="userSpaceOnUse" gradientTransform="matrix(20.54,.26,-0.173,13.663,67.7,12.86)">
			<stop offset="0" stop-color="#1b4175"/>
			<stop offset=".28" stop-color="#299dca"/>
			<stop offset=".67" stop-color="#7ad8ee"/>
			<stop offset=".8" stop-color="#c6eefa"/>
			<stop offset="1" stop-color="#c6eefa"/>
		</linearGradient>
		<linearGradient id="g6" x2="1" gradientUnits="userSpaceOnUse" gradientTransform="matrix(21.16,0,0,10.651,68,16.5)">
			<stop offset="0" stop-color="#1656ae"/>
			<stop offset=".19" stop-color="#1656ae"/>
			<stop offset=".51" stop-color="#82dade"/>
			<stop offset=".67" stop-color="#2eb0db"/>
			<stop offset=".97" stop-color="#56b8a5"/>
			<stop offset="1" stop-color="#56b8a5"/>
		</linearGradient>
		<linearGradient id="g7" x2="1" gradientUnits="userSpaceOnUse" gradientTransform="matrix(8.8,0,0,3.256,67.02,32.78)">
			<stop offset="0" stop-color="#f280bc"/>
			<stop offset=".19" stop-color="#f280bc"/>
			<stop offset=".4" stop-color="#e13994"/>
			<stop offset=".67" stop-color="#be2a6e"/>
			<stop offset=".95" stop-color="#982253"/>
			<stop offset="1" stop-color="#982253"/>
		</linearGradient>
	</defs>
	<style>
		.s0 { fill: #2c257d } 
		.s1 { fill: #85878b } 
		.s2 { fill: #ff904a } 
		.s3 { fill: url(#g1) } 
		.s4 { fill: url(#g2) } 
		.s5 { fill: url(#g3) } 
		.s6 { fill: #fce37c } 
		.s7 { fill: #68359c } 
		.s8 { fill: #2c2e35 } 
		.s9 { fill: #572470 } 
		.s10 { fill: #ff9648 } 
		.s11 { fill: #30ae5a } 
		.s12 { fill: #727586 } 
		.s13 { fill: #1144a4 } 
		.s14 { fill: url(#g4) } 
		.s15 { fill: url(#g5) } 
		.s16 { fill: url(#g6) } 
		.s17 { fill: url(#g7) } 
	</style>
	<g id="Folder 1">
		<path id="Path 1" class="s0" d="m15.37 137.58h-2.84l-2.2-8.6-2.18 8.6h-2.83l-3.59-12.53h2.98l2.2 9.06 2.39-9.06h2.09l2.37 9.06 2.19-9.06h2.99zm10.41 0.22q-2.85 0-4.7-1.82-1.86-1.82-1.86-4.66 0-2.84 1.86-4.66 1.85-1.83 4.7-1.83 2.84 0 4.69 1.84 1.85 1.83 1.85 4.65 0 2.82-1.85 4.65-1.85 1.83-4.69 1.83zm-2.76-3.53q1.05 1.16 2.76 1.16 1.71 0 2.76-1.16 1.04-1.17 1.04-2.95 0-1.79-1.04-2.95-1.05-1.17-2.76-1.17-1.72 0-2.77 1.17-1.04 1.16-1.04 2.95 0 1.78 1.05 2.95zm24.77 3.31h-2.69v-9.04l-3.53 9.04h-1.16l-3.54-9.04v9.04h-2.67v-12.54h3.74l3.05 7.84 3.04-7.84h3.76zm11.35 0h-8.87v-12.54h8.87v2.35h-6.2v2.64h6.07v2.34h-6.07v2.86h6.2zm13.31 0h-2.57l-5.98-8.17v8.17h-2.67v-12.53h2.75l5.8 7.87v-7.87h2.67zm13.4 0.22q-2.87 0-4.78-1.81-1.91-1.82-1.91-4.67 0-2.88 1.91-4.68 1.91-1.81 4.78-1.81 3.52 0 5.23 3.07l-2.3 1.12q-0.41-0.79-1.21-1.3-0.8-0.52-1.72-0.52-1.71 0-2.83 1.17-1.11 1.16-1.11 2.95 0 1.78 1.11 2.95 1.12 1.16 2.83 1.16 0.92 0 1.72-0.51 0.8-0.52 1.21-1.31l2.3 1.11q-1.75 3.08-5.23 3.08zm18.52-0.22h-3.03l-0.79-2.13h-5.37l-0.79 2.13h-3.03l4.83-12.54h3.34zm-4.54-4.47l-1.96-5.4-1.95 5.4zm15.88 4.47h-3.08l-2.47-4.46h-1.95v4.46h-2.67v-12.54h5.87q1.93 0 3.08 1.13 1.14 1.13 1.14 2.91 0 1.54-0.81 2.5-0.82 0.96-1.95 1.23zm-4.68-6.81q0.81 0 1.34-0.46 0.52-0.46 0.52-1.25 0-0.75-0.52-1.21-0.53-0.46-1.34-0.46h-2.82v3.38zm15.47 6.81h-8.87v-12.54h8.87v2.35h-6.2v2.63h6.07v2.35h-6.07v2.86h6.2zm21.9 0.22q-2.88 0-4.79-1.81-1.9-1.82-1.9-4.67 0-2.88 1.9-4.68 1.91-1.81 4.79-1.81 3.51 0 5.22 3.07l-2.29 1.12q-0.41-0.78-1.21-1.3-0.8-0.52-1.72-0.52-1.71 0-2.83 1.17-1.12 1.16-1.12 2.95 0 1.78 1.12 2.95 1.12 1.16 2.83 1.16 0.92 0 1.72-0.51 0.8-0.52 1.21-1.31l2.29 1.11q-1.74 3.08-5.22 3.08zm18.1-0.22h-2.69v-5.28h-5.92v5.28h-2.67v-12.54h2.67v4.92h5.92v-4.92h2.69zm5.13 0h-2.67v-12.54h2.67zm10.36 0h-7.99v-12.53h2.69v10.19h5.3zm6.76 0h-4.96v-12.54h4.94q2.95 0 4.8 1.73 1.86 1.73 1.86 4.53 0 2.84-1.85 4.56-1.84 1.72-4.79 1.72zm-0.02-2.35q1.81 0 2.87-1.13 1.06-1.13 1.06-2.8 0-1.71-1.02-2.81-1.03-1.1-2.89-1.1h-2.29v7.84zm19.47 2.57q-2.88 0-4.78-1.81-1.91-1.82-1.91-4.67 0-2.88 1.91-4.68 1.9-1.81 4.78-1.81 3.51 0 5.23 3.07l-2.3 1.12q-0.41-0.79-1.21-1.3-0.8-0.52-1.72-0.52-1.71 0-2.83 1.17-1.12 1.16-1.12 2.95 0 1.78 1.12 2.95 1.12 1.16 2.83 1.16 0.92 0 1.72-0.51 0.8-0.52 1.21-1.31l2.3 1.11q-1.75 3.08-5.23 3.08zm18.51-0.22h-3.02l-0.79-2.13h-5.38l-0.79 2.13h-3.02l4.83-12.54h3.34zm-4.55-4.47l-1.95-5.4-1.95 5.4zm15.88 4.47h-3.09l-2.46-4.46h-1.95v4.46h-2.67v-12.54h5.86q1.94 0 3.09 1.13 1.14 1.13 1.14 2.91 0 1.54-0.82 2.5-0.81 0.96-1.94 1.23zm-4.68-6.81q0.81 0 1.33-0.46 0.53-0.46 0.53-1.25 0-0.75-0.53-1.21-0.52-0.46-1.33-0.46h-2.82v3.38zm15.47 6.81h-8.87v-12.54h8.87v2.35h-6.2v2.63h6.07v2.35h-6.07v2.86h6.2zm18.48 0h-2.67v-12.54h8.87v2.35h-6.2v2.63h6.07v2.35h-6.07zm16.93 0h-8.87v-12.54h8.87v2.35h-6.2v2.63h6.07v2.35h-6.07v2.86h6.2zm12.25 0h-3.08l-2.46-4.45h-1.96v4.45h-2.66v-12.54h5.86q1.94 0 3.08 1.13 1.15 1.13 1.15 2.92 0 1.54-0.82 2.49-0.82 0.96-1.94 1.23zm-4.68-6.81q0.8 0 1.33-0.46 0.53-0.46 0.53-1.25 0-0.75-0.53-1.21-0.53-0.46-1.33-0.46h-2.82v3.38zm12.17 6.81h-2.68v-10.19h-3.67v-2.35h10v2.35h-3.65zm8.03 0h-2.67v-12.54h2.67zm10.36 0h-7.99v-12.53h2.69v10.18h5.3zm4.47 0h-2.67v-12.53h2.67zm8.06 0h-2.69v-10.19h-3.66v-2.35h10v2.35h-3.65zm11.52 0h-2.67v-5.13l-4.81-7.4h3.05l3.1 5.01 3.1-5.01h3.03l-4.8 7.4z"/>
		<path id="Path 2" class="s1" d="m135 137.96h-1.6v-13.29h1.6zm122.34 0h-1.6v-13.29h1.6z"/>
		<path id="Path 3" class="s2" d="m68.01 114.24h-67.77v1.22h67.77z"/>
		<path id="Path 4" class="s3" d="m139.58 115.46v-1.22h-71.57v1.22z"/>
		<path id="Path 5" class="s4" d="m211.16 115.46v-1.22h-71.58v1.22z"/>
		<path id="Path 6" class="s5" d="m282.73 114.24h-71.57v1.22h71.57z"/>
		<path id="Path 7" class="s6" d="m350.12 114.24h-67.39v1.22h67.39z"/>
		<path id="Path 8" class="s1" d="m142.22 0.73v103.1h-1.29v-103.1z"/>
		<path id="Path 9" class="s7" d="m188.17 41.87c0 8.23-6.66 14.89-14.89 14.89-8.25 0-14.91-6.66-14.91-14.89 0-8.21 6.66-14.85 14.87-14.88h0.09c8.21 0.03 14.84 6.67 14.84 14.88z"/>
		<path id="Path 10" class="s7" d="m172.28 59.79c-7.34 0-11.12-3.56-14.13-7.95v29.98c0 6.09 2.16 11.23 6.38 15.46q6.43 6.38 15.61 6.38c6.03 0 11.18-2.1 15.39-6.31q6.5-6.39 6.51-15.53 0-9.03-6.42-15.35c-4.35-4.41-9.94-6.48-16.09-6.5-2.47 0-7.25-0.18-7.25-0.18z"/>
		<path id="Path 11" class="s8" d="m207.91 95.08c0-0.31 0.2-0.53 0.53-0.53h2.77c1.79 0 2.71 0.92 2.71 2.34 0 1.05-0.48 1.7-1.23 1.96v0.03c0.66 0.17 1.38 0.89 1.38 2.07 0 1.68-1.09 2.55-2.9 2.55h-2.73c-0.33 0-0.53-0.19-0.53-0.52zm3.28 3.34c0.98 0 1.57-0.57 1.57-1.4 0-0.85-0.59-1.39-1.57-1.39h-2.03q-0.08-0.01-0.09 0.09v2.64q0.01 0.06 0.09 0.06zm-2.03 4.02h2.09c1.07 0 1.64-0.57 1.64-1.46 0-0.9-0.57-1.49-1.64-1.49h-2.09q-0.08 0-0.09 0.09v2.79q0.01 0.07 0.09 0.07z"/>
		<path id="Path 12" class="s7" d="m346.28 56.98v0.58h1.16v3h0.7v-3h1.15v-0.58zm7.6 3.58l-0.28-3.58h-1.03l-0.61 1.76q-0.13 0.4-0.26 0.9h-0.02c-0.09-0.37-0.16-0.63-0.22-0.92l-0.64-1.74h-1.06l-0.27 3.58h0.7l0.13-2.12q0.01-0.5 0.02-1.01h0.05c0.06 0.33 0.17 0.75 0.24 1.03l0.65 2.05h0.75l0.63-2.01c0.11-0.32 0.22-0.74 0.31-1.07h0.04q0.03 0.6 0.02 1.01l0.13 2.12z"/>
		<path id="Path 13" fill-rule="evenodd" class="s8" d="m218.61 99.88v3.06c0 0.39-0.24 0.63-0.59 0.63-0.33 0-0.57-0.24-0.57-0.63v-3.06l-2.46-4.52q-0.08-0.17-0.09-0.35c0-0.28 0.24-0.52 0.57-0.52q0.33 0.01 0.5 0.35l2.05 3.82h0.05l2.03-3.82q0.15-0.34 0.5-0.35c0.33 0 0.54 0.24 0.54 0.52q-0.01 0.18-0.08 0.35zm6.98 3.06v-7.86c0-0.31 0.2-0.53 0.53-0.53h2.82c1.72 0 2.81 1.03 2.81 2.58 0 1.2-0.63 2.07-1.7 2.42l1.61 3.15c0.05 0.11 0.09 0.19 0.09 0.33 0 0.28-0.22 0.54-0.57 0.54q-0.36 0.01-0.56-0.37l-1.77-3.49h-2.01q-0.07 0.01-0.07 0.08v3.15c0 0.39-0.24 0.63-0.59 0.63-0.35 0-0.59-0.24-0.59-0.63zm5-5.81c0-0.94-0.61-1.49-1.65-1.49h-2.1q-0.07 0-0.07 0.09v2.82q0 0.06 0.07 0.06h2.1c1.04 0 1.65-0.54 1.65-1.48zm2.49 5.63l2.76-7.62c0.15-0.41 0.37-0.65 0.76-0.65 0.39 0 0.65 0.24 0.81 0.65l2.7 7.62q0.04 0.13 0.05 0.27c0 0.32-0.24 0.54-0.55 0.54-0.26 0-0.48-0.15-0.57-0.41l-0.61-1.73h-3.67l-0.61 1.73c-0.08 0.26-0.3 0.41-0.56 0.41-0.29 0-0.55-0.22-0.55-0.54q0.01-0.14 0.04-0.27zm4.98-2.42l-1.42-4.06h-0.04l-1.46 4.06zm3.64-5.22c0-0.39 0.22-0.63 0.59-0.63 0.33 0 0.57 0.24 0.57 0.63v7.82c0 0.39-0.24 0.63-0.57 0.63-0.37 0-0.59-0.24-0.59-0.63zm3.37 0.09c0-0.44 0.24-0.72 0.65-0.72 0.35 0 0.57 0.21 0.79 0.61l3.82 6.31h0.04v-6.34c0-0.37 0.22-0.58 0.55-0.58 0.32 0 0.54 0.21 0.54 0.58v7.78c0 0.43-0.24 0.72-0.63 0.72-0.35 0-0.59-0.22-0.81-0.61l-3.82-6.27h-0.04v6.29c0 0.37-0.22 0.59-0.53 0.59-0.32 0-0.56-0.22-0.56-0.59zm8.6-0.13c0-0.31 0.19-0.53 0.52-0.53h2.8c1.79 0 2.68 0.92 2.68 2.34 0 1.05-0.48 1.7-1.2 1.97v0.02c0.64 0.17 1.36 0.89 1.36 2.07 0 1.68-1.07 2.56-2.89 2.56h-2.75c-0.33 0-0.52-0.2-0.52-0.53zm3.27 3.34c1.01 0 1.57-0.56 1.57-1.39 0-0.86-0.56-1.4-1.57-1.4h-2.01q-0.09-0.01-0.08 0.09v2.64q-0.01 0.06 0.08 0.06zm-2 4.02h2.07c1.07 0 1.66-0.57 1.66-1.46 0-0.9-0.59-1.49-1.66-1.49h-2.07q-0.1 0-0.09 0.09v2.8q-0.01 0.06 0.09 0.06zm6.61-0.89c-0.19-0.66-0.24-1.23-0.24-2.52 0-1.26 0.05-1.85 0.24-2.48 0.46-1.38 1.49-2.12 3.04-2.12 1.55 0 2.59 0.74 3.03 2.12 0.22 0.63 0.26 1.22 0.26 2.48 0 1.29-0.04 1.86-0.26 2.52-0.44 1.35-1.48 2.11-3.03 2.11-1.55 0-2.58-0.76-3.04-2.11zm4.94-0.38c0.13-0.43 0.19-0.96 0.19-2.14 0-1.17-0.06-1.7-0.19-2.14-0.27-0.83-0.88-1.37-1.9-1.37-1.03 0-1.62 0.54-1.88 1.37-0.15 0.44-0.22 0.97-0.22 2.14 0 1.18 0.07 1.71 0.22 2.14 0.26 0.83 0.85 1.4 1.88 1.4 1.02 0 1.63-0.57 1.9-1.4zm9.28 1.77l-1.77-6.24h-0.02l-1.79 6.24c-0.14 0.46-0.31 0.64-0.64 0.64-0.3 0-0.5-0.18-0.63-0.64l-1.94-7.62q-0.04-0.17-0.05-0.28c0-0.29 0.22-0.55 0.57-0.55q0.43-0.01 0.57 0.51l1.55 6.35h0.02l1.75-6.29q0.15-0.56 0.61-0.57c0.3 0 0.48 0.2 0.59 0.57l1.79 6.29h0.02l1.48-6.35q0.14-0.52 0.57-0.51c0.35 0 0.57 0.26 0.57 0.55q-0.01 0.11-0.04 0.28l-1.95 7.62c-0.13 0.46-0.32 0.64-0.63 0.64-0.33 0-0.5-0.18-0.63-0.64zm7.68-7.81c0-0.4 0.24-0.64 0.59-0.64 0.35 0 0.57 0.24 0.57 0.64v3.23q0.01 0.09 0.09 0.08h3.88q0.07 0.01 0.07-0.08v-3.23c0-0.4 0.24-0.64 0.61-0.64 0.33 0 0.57 0.24 0.57 0.64v7.81c0 0.4-0.24 0.64-0.57 0.64-0.37 0-0.61-0.24-0.61-0.64v-3.32q0-0.09-0.07-0.08h-3.88q-0.08-0.01-0.09 0.08v3.32c0 0.4-0.22 0.64-0.57 0.64-0.35 0-0.59-0.24-0.59-0.64zm8.52 6.42c-0.2-0.65-0.24-1.22-0.24-2.51 0-1.26 0.04-1.85 0.24-2.49 0.46-1.37 1.48-2.11 3.03-2.11 1.55 0 2.58 0.74 3.04 2.11 0.22 0.64 0.24 1.23 0.24 2.49 0 1.29-0.02 1.86-0.24 2.51-0.46 1.36-1.49 2.12-3.04 2.12-1.55 0-2.57-0.76-3.03-2.12zm4.93-0.37c0.13-0.43 0.2-0.96 0.2-2.14 0-1.18-0.07-1.7-0.2-2.14-0.26-0.83-0.87-1.37-1.9-1.37-1.02 0-1.61 0.54-1.88 1.37-0.15 0.44-0.21 0.96-0.21 2.14 0 1.18 0.06 1.71 0.21 2.14 0.27 0.83 0.86 1.4 1.88 1.4 1.03 0 1.64-0.57 1.9-1.4zm3.19 1.64q-0.27-0.2-0.28-0.5c0-0.31 0.21-0.57 0.56-0.57 0.14 0 0.27 0.07 0.37 0.13 0.66 0.39 1.38 0.7 2.23 0.7 1.27 0 1.99-0.61 1.99-1.53 0-0.76-0.41-1.24-1.86-1.46l-0.43-0.07c-1.82-0.28-2.65-1.09-2.65-2.49 0-1.59 1.14-2.6 2.93-2.6 0.96 0 1.81 0.27 2.36 0.59q0.33 0.23 0.33 0.53c0 0.28-0.24 0.52-0.53 0.52-0.13 0-0.28-0.06-0.39-0.11-0.57-0.24-1.16-0.43-1.81-0.43-1.14 0-1.71 0.61-1.71 1.44 0 0.74 0.46 1.22 1.86 1.44l0.44 0.06c1.81 0.27 2.66 1.07 2.66 2.51 0 1.55-1.11 2.69-3.28 2.69-1.15 0-2.16-0.41-2.79-0.85zm7.86-7.73c0-0.31 0.2-0.52 0.52-0.52h2.78c1.79 0 2.86 1.09 2.86 2.66 0 1.59-1.07 2.69-2.86 2.69h-2.05q-0.07 0-0.07 0.06v2.97c0 0.39-0.24 0.63-0.59 0.63-0.35 0-0.59-0.24-0.59-0.63zm5 2.14c0-0.96-0.63-1.57-1.75-1.57h-2q-0.07-0.01-0.07 0.09v2.99q0 0.09 0.07 0.08h2c1.12 0 1.75-0.61 1.75-1.59zm2.8-2.1c0-0.39 0.24-0.63 0.58-0.63 0.35 0 0.57 0.24 0.57 0.63v7.82c0 0.39-0.22 0.64-0.57 0.64-0.34 0-0.58-0.25-0.58-0.64zm8.53-0.57c0.35 0 0.57 0.24 0.57 0.55 0 0.31-0.22 0.55-0.57 0.55h-2.07q-0.07-0.01-0.07 0.08v7.21c0 0.39-0.24 0.63-0.59 0.63-0.35 0-0.59-0.24-0.59-0.63v-7.21q0.01-0.09-0.08-0.08h-2.06c-0.34 0-0.58-0.24-0.58-0.55 0-0.31 0.24-0.55 0.58-0.55z"/>
		<path id="Path 14" fill-rule="evenodd" class="s8" d="m324.55 102.76l2.76-7.62c0.13-0.41 0.37-0.65 0.76-0.65 0.39 0 0.63 0.24 0.79 0.65l2.7 7.62c0.03 0.09 0.07 0.18 0.07 0.26 0 0.33-0.26 0.55-0.57 0.55q-0.4-0.01-0.57-0.41l-0.59-1.73h-3.69l-0.59 1.73q-0.17 0.4-0.56 0.41c-0.31 0-0.57-0.22-0.57-0.55 0-0.08 0.04-0.17 0.06-0.26zm4.96-2.42l-1.42-4.06h-0.04l-1.44 4.06zm3.64-5.22c0-0.39 0.24-0.63 0.57-0.63 0.35 0 0.61 0.24 0.61 0.63v7.21q0 0.09 0.07 0.08h3.88c0.35 0 0.59 0.24 0.59 0.55 0 0.31-0.24 0.54-0.59 0.54h-4.56c-0.35 0-0.57-0.21-0.57-0.58zm6.99 7.68q-0.27-0.2-0.28-0.5c0-0.31 0.21-0.57 0.56-0.57 0.13 0 0.27 0.07 0.38 0.13 0.65 0.4 1.37 0.7 2.22 0.7 1.27 0 1.99-0.61 1.99-1.53 0-0.76-0.42-1.24-1.86-1.46l-0.43-0.07c-1.82-0.28-2.65-1.09-2.65-2.48 0-1.6 1.14-2.6 2.93-2.6 0.96 0 1.81 0.26 2.36 0.59q0.33 0.23 0.33 0.52c0 0.29-0.24 0.53-0.55 0.53-0.11 0-0.26-0.07-0.37-0.11-0.57-0.24-1.16-0.44-1.81-0.44-1.14 0-1.71 0.61-1.71 1.44 0 0.74 0.46 1.22 1.86 1.44l0.44 0.07c1.79 0.26 2.66 1.07 2.66 2.51 0 1.55-1.11 2.68-3.27 2.68-1.16 0-2.17-0.41-2.8-0.85z"/>
		<path id="Path 15" fill-rule="evenodd" class="s7" d="m207.91 60.84c0-1.14 0.66-1.88 1.73-1.88h6.85c4.63 0 6.92 2.56 6.92 6.38 0 2.51-1.02 4.26-2.57 5.13v0.09c1.61 0.69 2.95 2.7 2.95 5.54 0 4.54-2.8 6.95-7.43 6.95h-6.72c-1.07 0-1.73-0.7-1.73-1.84zm8.47 8.15c1.97 0 3.17-1.27 3.17-3.15 0-1.92-1.2-3.19-3.17-3.19h-4.43q-0.19 0-0.19 0.2v5.92q0 0.22 0.19 0.22zm-4.43 10.39h4.63c2.16 0 3.36-1.35 3.36-3.38 0-1.97-1.2-3.32-3.36-3.32h-4.63q-0.2-0.01-0.2 0.22v6.26q0 0.21 0.2 0.22zm15.7 1.77v-13.26c0-1.31 0.74-2.09 1.81-2.09 1.09 0 1.83 0.78 1.83 2.09v13.26c0 1.31-0.74 2.09-1.83 2.09-1.07 0-1.81-0.78-1.81-2.09zm1.81-22.51c1.22 0 2.18 1.07 2.18 2.38 0 1.31-0.96 2.38-2.18 2.38-1.2 0-2.18-1.07-2.18-2.38 0-1.31 0.98-2.38 2.18-2.38zm10.24 9.32h0.04c0.68-1.31 2.12-2.38 3.98-2.38 0.87 0 1.5 0.22 1.98 0.46 0.7 0.39 0.99 0.96 0.99 1.64 0 1.17-0.72 2.03-1.79 2.03-0.26 0-0.57-0.09-0.85-0.2-0.46-0.13-0.99-0.28-1.47-0.28-2.03 0-2.88 1.74-2.88 4.32v7.6c0 1.31-0.74 2.09-1.81 2.09-1.05 0-1.84-0.78-1.84-2.09v-13.26c0-1.31 0.75-2.09 1.84-2.09 1.07 0 1.81 0.78 1.81 2.09zm9.59 1.1c-0.9 0-1.49-0.59-1.49-1.51 0-0.94 0.59-1.57 1.49-1.57h0.46c0.13 0 0.23-0.07 0.23-0.22v-3.1c0-1.31 0.79-2.1 1.86-2.1 1.05 0 1.79 0.79 1.79 2.1v3.1q0 0.22 0.2 0.22h1.66c0.91 0 1.5 0.63 1.5 1.57 0 0.92-0.59 1.51-1.5 1.51h-1.66q-0.2 0.01-0.2 0.21v8.52c0 1.38 0.35 1.79 1.7 1.94 1.14 0.11 1.66 0.88 1.66 1.77 0 0.98-0.65 1.77-1.98 1.77h-0.31c-3.4 0-4.72-1.66-4.72-5.39v-8.61c0-0.13-0.1-0.21-0.23-0.21zm21.24 12.09v-8.29c0-2.21-0.98-3.72-2.97-3.72-1.92 0-3.01 1.51-3.01 3.72v8.29c0 1.31-0.74 2.1-1.82 2.1-1.09 0-1.83-0.79-1.83-2.1v-20.28c0-1.31 0.74-2.08 1.83-2.08 1.08 0 1.82 0.77 1.82 2.08v6.7h0.04c0.81-1.24 2.27-1.99 4.15-1.99 3.34 0 5.44 2.71 5.44 6.36v9.21c0 1.31-0.75 2.1-1.84 2.1-1.07 0-1.81-0.79-1.81-2.1zm20.5 0.77l-4.01-8.61h-4.13q-0.2 0-0.2 0.22v7.51c0 1.36-0.78 2.21-1.92 2.21-1.11 0-1.92-0.85-1.92-2.21v-20.19c0-1.14 0.63-1.88 1.72-1.88h7.17c4.08 0 7.07 2.95 7.07 7.18 0 3.06-1.55 5.4-3.93 6.49l3.6 7.33c0.2 0.4 0.31 0.86 0.31 1.29 0 1.09-0.72 1.99-1.86 1.99-0.83 0-1.46-0.39-1.9-1.33zm-0.02-15.77c0-2.07-1.37-3.43-3.4-3.43h-4.72q-0.2 0-0.2 0.22v6.4q0 0.22 0.2 0.22h4.72c2.03 0 3.4-1.36 3.4-3.41zm7.29 15v-13.25c0-1.31 0.77-2.1 1.84-2.1 1.07 0 1.83 0.79 1.83 2.1v13.25c0 1.31-0.76 2.1-1.83 2.1-1.07 0-1.84-0.79-1.84-2.1zm1.84-22.51c1.2 0 2.18 1.07 2.18 2.38 0 1.31-0.98 2.38-2.18 2.38-1.2 0-2.18-1.07-2.18-2.38 0-1.31 0.98-2.38 2.18-2.38zm6.27 29.24c-0.33-0.4-0.51-0.88-0.51-1.31 0-0.92 0.66-1.73 1.57-1.73 0.53 0 0.99 0.2 1.47 0.57 0.78 0.55 1.72 0.87 2.71 0.87 2.24 0 3.49-1.24 3.49-4.1v-1.57h-0.04c-0.77 1.31-2.08 1.98-4.17 1.98-2.6 0-4.44-1.5-5.25-4.23-0.37-1.22-0.52-2.49-0.52-4.24 0-1.72 0.15-3.08 0.52-4.28 0.81-2.68 2.65-4.26 5.25-4.26 2.22 0 3.53 0.96 4.23 2.17h0.04v-0.4c0.16-0.83 0.75-1.55 1.77-1.55 1.07 0 1.82 0.79 1.82 2.1v13.78c0 5.46-2.58 8.14-7.34 8.14-2.07 0-4.17-0.92-5.04-1.94zm8.36-16.49c-0.44-1.5-1.29-2.25-2.75-2.25-1.49 0-2.34 0.75-2.78 2.25-0.24 0.72-0.37 1.6-0.37 2.71 0 1.14 0.13 2.01 0.37 2.73 0.44 1.53 1.29 2.27 2.78 2.27 1.46 0 2.31-0.74 2.75-2.27 0.24-0.72 0.37-1.59 0.37-2.73 0-1.11-0.13-1.99-0.37-2.71zm17.75 9.76v-8.29c0-2.21-0.98-3.72-2.97-3.72-1.92 0-2.99 1.51-2.99 3.72v8.29c0 1.31-0.76 2.1-1.84 2.1-1.07 0-1.83-0.79-1.83-2.1v-20.28c0-1.31 0.76-2.08 1.83-2.08 1.08 0 1.84 0.77 1.84 2.08v6.7h0.02c0.81-1.24 2.29-1.99 4.15-1.99 3.36 0 5.44 2.71 5.44 6.36v9.21c0 1.31-0.75 2.1-1.82 2.1-1.09 0-1.83-0.79-1.83-2.1zm7.79-12.09c-0.91 0-1.5-0.59-1.5-1.51 0-0.94 0.59-1.57 1.5-1.57h0.46q0.21 0 0.22-0.22v-3.1c0-1.31 0.79-2.1 1.86-2.1 1.05 0 1.81 0.79 1.81 2.1v3.1q0 0.22 0.2 0.22h1.66c0.91 0 1.48 0.63 1.48 1.57 0 0.92-0.57 1.51-1.48 1.51h-1.66q-0.2 0.01-0.2 0.21v8.52c0 1.38 0.35 1.79 1.68 1.94 1.16 0.11 1.66 0.88 1.66 1.77 0 0.98-0.63 1.77-1.99 1.77h-0.28c-3.43 0-4.74-1.66-4.74-5.39v-8.61q-0.01-0.2-0.22-0.21z"/>
		<path id="Path 16" class="s8" d="m114.39 35.79v-4.82h1.47l0.87 3.3 0.85-3.3h1.46v4.82h-0.91v-3.79l-0.94 3.79h-0.94l-0.94-3.79-0.02 3.79zm-3.01 0v-3.99h-1.42v-0.83h3.82v0.83h-1.42v3.99z"/>
		<path id="Path 17" fill-rule="evenodd" class="s0" d="m1.68 49.74v-17.84h6.68q2.04 0 3.12 0.51 1.07 0.51 1.69 1.56 0.62 1.03 0.62 2.35 0 1.58-0.9 2.96-0.91 1.4-2.56 2.13l5.84 8.33h-4.52l-4.44-7.29h-2.04v7.29zm3.48-9.74h0.86q2.31 0 3.17-1.01 0.89-1 0.89-2.25 0-1.1-0.71-1.75-0.72-0.65-2.91-0.65h-1.3zm20.04 8.31q-0.78 0.76-1.34 1.08-0.57 0.33-1.19 0.49-0.6 0.16-1.29 0.16-1.78 0-2.84-1.1-1.07-1.11-1.07-2.7-0.01-1.96 1.6-3.27 1.59-1.3 5.17-1.3h0.96v-1.21q0-1.22-0.68-1.65-0.67-0.41-1.71-0.42-2.05 0.01-4.19 1.19v-2.46q2.43-0.92 4.83-0.91 1.47-0.01 2.63 0.39 1.16 0.4 1.84 1.24 0.7 0.83 0.7 2.5v5.85q0 1.08 0.33 1.32 0.34 0.24 0.66 0.24 0.19 0 0.49-0.05l0.08 2q-1.14 0.34-2.01 0.34-1 0-1.71-0.33-0.72-0.33-1.11-1.4zm0-1.9v-2.7h-0.84q-1.76 0-2.6 0.62-0.86 0.63-0.86 1.56 0 0.75 0.52 1.24 0.51 0.49 1.22 0.49 0.62 0 1.27-0.31 0.64-0.31 1.29-0.9zm8.03-9.91h3.58v13.23h-3.58zm0-5.2h3.58v2.98h-3.58zm8.03 18.44v-13.24h3.57v2.49q0.97-1.52 2.13-2.16 1.18-0.63 2.38-0.62 1.57-0.01 2.69 0.99 1.13 1.02 1.14 3.18v9.36h-3.58v-8.48q0.01-1.08-0.2-1.47-0.19-0.38-0.54-0.58-0.33-0.2-0.76-0.2-0.73 0-1.53 0.49-0.8 0.48-1.73 1.91v8.33zm16.23 0v-19.04h3.56v8.31q0.68-1.41 1.75-2.1 1.07-0.7 2.52-0.7 2.41-0.01 3.74 1.8 1.31 1.81 1.31 4.75 0 3.11-1.47 5.2-1.48 2.08-4.12 2.08-0.73 0-1.37-0.16-0.62-0.17-1.17-0.49-0.56-0.32-1.19-0.99l-0.66 1.34zm3.57-3.46q0.74 0.84 1.39 1.15 0.64 0.3 1.32 0.3 1.42 0 2.11-1.42 0.7-1.42 0.7-3.24 0-1.89-0.67-2.97-0.66-1.09-1.88-1.09-0.77 0-1.54 0.55-0.77 0.55-1.43 1.48zm18.45 3.77q-2.15 0-3.69-0.84-1.53-0.84-2.35-2.47-0.8-1.63-0.8-3.62 0-1.97 0.79-3.59 0.8-1.63 2.35-2.47 1.54-0.86 3.7-0.85 2.16-0.01 3.7 0.85 1.54 0.84 2.34 2.47 0.81 1.62 0.81 3.59-0.01 1.99-0.81 3.62-0.82 1.63-2.35 2.47-1.53 0.84-3.69 0.84zm0-2.23q1.51 0 2.28-1.34 0.77-1.33 0.77-3.36 0-2.01-0.77-3.35-0.77-1.34-2.28-1.34-1.51 0-2.28 1.34-0.77 1.34-0.77 3.35 0 2.03 0.77 3.36 0.77 1.34 2.28 1.34zm12.46 1.92l-3.68-13.24h3.32l2.59 9.27 2.78-9.27h3.08l2.5 9.33 2.81-9.33h2.49l-3.93 13.24h-3.43l-2.42-9.08-2.69 9.08zm-75.91 24.24q-1.18 0.51-2.04 0.7-0.88 0.19-1.97 0.32-1.11 0.12-2.19 0.12-4.67 0-6.98-2.64-2.3-2.64-2.3-6.73 0-4.11 2.3-6.73 2.3-2.64 7.21-2.63 2.92-0.01 5.8 0.68v2.91q-1.4-0.49-2.27-0.71-0.88-0.22-1.67-0.33-0.79-0.11-1.58-0.11-3.07 0-4.45 1.98-1.4 1.97-1.39 4.9 0 3.05 1.57 4.95 1.57 1.89 4.69 1.89 2.59 0 5.27-1.32z"/>
		<path id="Path 18" fill-rule="evenodd" class="s0" d="m19.26 74.68v-19.05h3.58v8.3q0.96-1.53 2.12-2.17 1.19-0.62 2.38-0.62 1.58-0.01 2.69 1 1.14 1.01 1.14 3.18v9.36h-3.57v-8.49q0-1.07-0.21-1.47-0.19-0.38-0.54-0.58-0.33-0.19-0.76-0.19-0.73-0.01-1.53 0.48-0.79 0.49-1.72 1.91v8.34zm16.22-13.25h3.56v13.25h-3.56zm0-5.21h3.56v2.98h-3.56zm8.03-0.59h3.57v19.04h-3.57zm16.24 19.05v-2.52q-0.68 1.41-1.75 2.11-1.07 0.71-2.52 0.7-2.41 0-3.73-1.8-1.32-1.8-1.32-4.75 0-3.13 1.48-5.21 1.47-2.08 4.11-2.07 0.71-0.01 1.32 0.14 0.59 0.15 1.13 0.47 0.55 0.31 1.28 1.02v-7.14h3.57v19.05zm0-9.79q-0.74-0.84-1.39-1.15-0.64-0.29-1.32-0.29-1.41 0-2.12 1.39-0.7 1.39-0.7 3.26 0 1.86 0.65 2.96 0.66 1.11 1.9 1.1 0.79 0 1.57-0.56 0.77-0.55 1.41-1.47zm8.14 9.79v-13.25h3.58v2.49q0.63-1.27 1.74-2.03 1.1-0.75 2.48-0.76 0.32 0.01 0.65 0.07v3.19q-0.74-0.28-1.41-0.28-1.05 0.01-1.93 0.53-0.86 0.55-1.53 1.63v8.41zm21.94-0.46q-2.52 0.76-4.8 0.75-2.15 0.01-3.75-0.8-1.61-0.8-2.48-2.51-0.87-1.7-0.87-3.71-0.01-1.84 0.74-3.42 0.74-1.58 2.14-2.48 1.42-0.92 3.47-0.92 2.53 0 4.04 1.62 1.51 1.62 1.51 6.01h-8.14q0.12 1.35 0.6 2.11 0.49 0.77 1.31 1.23 0.83 0.45 2.22 0.45 1.77 0 4.01-0.83zm-8.2-7.48h4.7q0-1.82-0.61-2.6-0.6-0.78-1.56-0.78-1.03 0-1.7 0.86-0.66 0.87-0.83 2.52zm11.95 7.93v-13.24h3.57v2.49q0.96-1.53 2.13-2.16 1.17-0.63 2.38-0.63 1.56 0 2.69 1.01 1.13 1 1.13 3.17v9.36h-3.57v-8.48q0-1.08-0.2-1.47-0.2-0.38-0.54-0.59-0.35-0.19-0.76-0.19-0.75 0-1.54 0.49-0.8 0.48-1.72 1.91v8.33zm16.6-15.17h-1.49v-3.87h3.87v3q0 1.8-0.42 2.69-0.43 0.88-1.28 1.47-0.86 0.58-2.17 0.58v-1.34q0.64 0 1.06-0.57 0.42-0.57 0.43-1.58zm4.54 14.75v-2.62q2.64 1.11 4.53 1.11 1 0 1.6-0.42 0.59-0.42 0.59-1.07 0-0.57-0.44-0.96-0.45-0.37-1.36-0.74l-1.21-0.48q-1.87-0.74-2.76-1.65-0.89-0.89-0.9-2.32 0.01-1.73 1.35-2.85 1.35-1.12 4.1-1.12 1.63 0 3.85 0.47v2.51q-2.15-0.75-3.55-0.75-1.11 0-1.66 0.38-0.56 0.39-0.57 0.98 0.01 0.47 0.37 0.83 0.35 0.37 1.28 0.71l1.04 0.41q2.56 0.97 3.36 1.89 0.78 0.92 0.78 2.21 0.01 1.69-1.44 2.94-1.43 1.26-4.19 1.26-2.34 0-4.77-0.72zm-113.05 24.64v-17.84h3.71v7.25h7.38v-7.25h3.71v17.84h-3.71v-8.13h-7.38v8.13z"/>
		<path id="Path 19" fill-rule="evenodd" class="s0" d="m26.6 99.21q-2.15-0.01-3.68-0.85-1.54-0.83-2.36-2.46-0.8-1.63-0.8-3.62 0-1.97 0.8-3.6 0.79-1.62 2.34-2.46 1.54-0.86 3.7-0.86 2.17 0 3.7 0.86 1.55 0.84 2.34 2.46 0.8 1.63 0.81 3.6 0 1.99-0.82 3.62-0.8 1.63-2.34 2.46-1.53 0.84-3.69 0.85zm0-2.24q1.51 0 2.28-1.34 0.77-1.32 0.77-3.35 0-2.02-0.77-3.35-0.77-1.34-2.28-1.34-1.51 0-2.28 1.34-0.76 1.33-0.76 3.35 0 2.03 0.76 3.35 0.77 1.34 2.28 1.34zm9.77 1.5v-2.61q2.65 1.11 4.52 1.11 1 0 1.6-0.43 0.6-0.41 0.6-1.07 0-0.56-0.45-0.94-0.44-0.38-1.36-0.74l-1.2-0.48q-1.87-0.75-2.76-1.65-0.9-0.89-0.9-2.34 0-1.72 1.34-2.84 1.36-1.12 4.11-1.12 1.62 0 3.85 0.47v2.51q-2.15-0.75-3.56-0.75-1.1 0.01-1.66 0.38-0.56 0.38-0.56 0.98 0 0.48 0.37 0.84 0.34 0.36 1.27 0.71l1.04 0.39q2.56 0.98 3.36 1.9 0.79 0.92 0.79 2.22 0 1.67-1.44 2.94-1.44 1.25-4.19 1.26-2.34 0-4.77-0.74zm14.3 5.19v-18h3.57v2.51q0.69-1.4 1.75-2.11 1.07-0.7 2.52-0.7 2.41 0 3.73 1.81 1.32 1.81 1.33 4.75-0.01 3.11-1.48 5.2-1.47 2.08-4.12 2.09-0.7 0-1.31-0.16-0.6-0.15-1.14-0.46-0.55-0.32-1.28-1.03v6.1zm3.58-8.22q0.74 0.84 1.39 1.15 0.65 0.3 1.31 0.29 1.44 0.01 2.12-1.41 0.7-1.41 0.7-3.24 0-1.89-0.66-2.98-0.67-1.08-1.89-1.08-0.77-0.01-1.54 0.55-0.78 0.54-1.43 1.48zm12.79-9.77h3.57v13.23h-3.57zm0-5.21h3.57v2.97h-3.57zm14.85 18.37q-1.27 0.38-2.01 0.38-1.75 0-2.72-0.5-0.95-0.49-1.44-1.35-0.48-0.84-0.49-2.5v-6.96h-1.47v-2.23h1.47v-2.24l3.58-0.4v2.64h2.83v2.23h-2.83v6.49q0 1.43 0.51 1.93 0.5 0.5 1.48 0.5 0.45 0 1.09-0.14zm9.68-1.35q-0.79 0.75-1.34 1.07-0.57 0.33-1.19 0.49-0.61 0.17-1.29 0.17-1.78 0-2.85-1.11-1.06-1.1-1.07-2.71 0-1.95 1.6-3.25 1.6-1.32 5.18-1.32h0.96v-1.2q0-1.22-0.68-1.64-0.67-0.42-1.71-0.43-2.06 0-4.19 1.19v-2.46q2.43-0.92 4.82-0.92 1.48 0 2.63 0.4 1.17 0.4 1.85 1.23 0.7 0.85 0.7 2.5v5.87q0 1.07 0.33 1.31 0.34 0.24 0.66 0.25 0.18-0.01 0.48-0.05l0.09 2q-1.14 0.34-2.02 0.34-0.99 0-1.7-0.34-0.72-0.33-1.11-1.39zm0-1.92v-2.68h-0.85q-1.74-0.01-2.6 0.61-0.85 0.62-0.85 1.55-0.01 0.76 0.52 1.25 0.52 0.49 1.21 0.49 0.63 0 1.28-0.31 0.63-0.3 1.29-0.91zm8.03-15.69h3.57v19.03h-3.57z"/>
		<path id="Path 20" class="s9" d="m82.06 5.44c-1.3-0.45-2.75-0.71-4.29-0.76-3.54 2.85-7.11 6.57-10.58 11q-0.92 1.17-1.83 2.42 1.26-1.22 2.56-2.37c4.63-4.15 9.43-7.64 14.14-10.29z"/>
		<path id="Path 21" class="s10" d="m64.66 8.77q-1.56 2.88-2.82 6.76-0.29 0.89-0.58 1.84 0.5-0.94 1-1.85c1.87-3.4 3.88-6.34 5.95-8.74q-1.86 0.86-3.55 1.99z"/>
		<path id="Path 22" class="s11" d="m68.42 24.64c5.69-0.66 11.84-1.02 18.23-1.06q0.85-1.43 1.42-2.91 0.39-0.99 0.65-2-1.77 0.4-3.53 0.84c-5.76 1.4-11.43 3.13-16.77 5.13z"/>
		<path id="Path 23" class="s12" d="m56.95 19.36q0.19-1.73 0.46-3.26-0.42 0.67-0.79 1.38 0.14 0.88 0.33 1.88z"/>
		<path id="Path 24" class="s13" d="m59.77 12.99q-0.27 1.25-0.46 2.65-0.15 1.16-0.23 2.43 0.4-1.28 0.83-2.47 0.96-2.62 2.07-4.8-1.18 1.04-2.21 2.19z"/>
		<path id="Path 25" class="s10" d="m80.32 30.47q2.12-1.59 3.82-3.5c-5.63 0.1-11.02 0.4-16.05 0.87q5.75 1.09 12.23 2.63z"/>
		<path id="Path 26" class="s14" d="m63.41 17.36c2.35-4.48 4.56-8.41 7.5-11.64 0 0 2.32-0.79 4.33-0.93-4.45 3.59-8.61 8.22-11.83 12.57z"/>
		<path id="Path 27" class="s15" d="m67 19.56c7.44-6.92 10.4-9.07 17.07-13.17 0 0 1.43 0.61 3.18 2.75 0 0-10.24 3.78-20.25 10.42z"/>
		<path id="Path 28" class="s16" d="m68 21.83c3.77-2.51 14.83-8.7 20.35-10.65 0 0 0.81 1.12 0.8 4.49-6.88 1.59-10.84 2.26-21.15 6.16z"/>
		<path id="Path 29" class="s17" d="m72.66 34.4c-0.98-0.57-5.64-3.26-5.64-3.26l8.81 2.02c0 0-1.87 0.91-3.17 1.24z"/>
	</g>
</svg>