<?xml version="1.0" encoding="UTF-8"?>
<svg id="Layer_1" xmlns="http://www.w3.org/2000/svg" width="178" height="63" version="1.1" viewBox="0 0 178 63">
  <!-- Generator: Adobe Illustrator 29.5.1, SVG Export Plug-In . SVG Version: 2.1.0 Build 141)  -->
  <defs>
    <style>
      .st0 {
        fill: #ef6e25;
      }

      .st0, .st1, .st2 {
        fill-rule: evenodd;
      }

      .st3, .st2 {
        fill: #08529c;
      }

      .st1 {
        fill: #fff;
      }

      .st4 {
        fill: #bb2030;
      }

      .st5 {
        fill: #dadbda;
      }

      .st6 {
        fill: #909294;
      }
    </style>
  </defs>
  <g>
    <rect class="st6" x="4.84" y="47.74" width="168.1" height=".3"/>
    <g>
      <path class="st6" d="M99.9,54v3.42c0,.07.02.12.05.16.03.04.09.06.17.09v.11h-1.42v-.11c.08-.02.14-.05.17-.09.03-.04.05-.09.05-.16v-3.42h-1.41c-.07,0-.12.02-.15.05-.04.03-.06.09-.09.17h-.11v-1.17h.11c.02.08.05.14.09.17.03.03.08.05.15.05h3.81c.07,0,.12-.02.16-.05.04-.03.06-.09.09-.17h.11v1.17h-.11c-.02-.08-.05-.14-.09-.17-.04-.03-.09-.05-.16-.05h-1.41Z"/>
      <path class="st6" d="M105.94,55.8h-2.62v1.63c0,.07.02.12.05.15.03.04.09.06.16.08v.11h-1.42v-.11c.08-.02.14-.05.17-.09.03-.04.05-.09.05-.15v-3.83c0-.07-.02-.12-.05-.15-.03-.04-.09-.06-.17-.09v-.11h1.42v.11c-.08.02-.14.05-.17.08-.03.04-.05.09-.05.15v1.46h2.62v-1.46c0-.07-.02-.12-.05-.15-.03-.04-.09-.06-.17-.08v-.11h1.42v.11c-.08.02-.14.05-.17.09-.03.04-.05.09-.05.15v3.83c0,.07.02.12.05.15.03.04.09.06.17.09v.11h-1.42v-.11c.08-.02.13-.05.16-.08.03-.04.05-.09.05-.15v-1.63Z"/>
      <path class="st6" d="M109.16,55.79v1.24h2.92c.07,0,.12-.02.15-.05.04-.03.06-.09.09-.17h.11v1.17h-.11c-.02-.08-.05-.13-.09-.17-.04-.03-.09-.05-.15-.05h-4.13v-.11c.08-.02.14-.05.17-.09.03-.04.05-.09.05-.16v-3.82c0-.07-.02-.12-.05-.16-.03-.04-.09-.06-.17-.09v-.11h4.05c.07,0,.12-.02.15-.05.04-.03.06-.09.09-.16h.11v1.17h-.11c-.02-.08-.05-.13-.09-.16-.04-.03-.09-.05-.15-.05h-2.84v1.07h1.84c.07,0,.12-.02.15-.05.04-.03.06-.09.09-.17h.11v1.14h-.11c-.02-.08-.05-.13-.09-.16-.04-.03-.09-.05-.15-.05h-1.84Z"/>
      <path class="st6" d="M117.23,54v3.42c0,.07.02.12.05.16.03.04.09.06.17.09v.11h-1.42v-.11c.08-.02.14-.05.17-.09.03-.04.05-.09.05-.16v-3.42h-1.41c-.07,0-.12.02-.15.05-.04.03-.06.09-.09.17h-.11v-1.17h.11c.02.08.05.14.09.17.03.03.08.05.15.05h3.81c.07,0,.12-.02.16-.05.04-.03.06-.09.09-.17h.11v1.17h-.11c-.02-.08-.05-.14-.09-.17-.04-.03-.09-.05-.16-.05h-1.41Z"/>
      <path class="st6" d="M121.89,53.18c.79,0,1.42.21,1.88.64.49.45.74,1.02.74,1.73,0,.43-.12.84-.35,1.21-.46.73-1.21,1.1-2.26,1.1-.79,0-1.41-.21-1.87-.64-.25-.23-.44-.5-.57-.82-.11-.28-.17-.57-.17-.88,0-.45.12-.87.35-1.24.45-.72,1.2-1.08,2.25-1.09ZM121.89,53.94c-.43,0-.79.13-1.08.38-.34.3-.51.7-.51,1.19s.17.88.51,1.19c.29.26.65.38,1.09.38s.8-.13,1.09-.38c.17-.15.3-.34.39-.56.08-.2.12-.4.12-.61,0-.51-.17-.91-.51-1.21-.29-.25-.66-.38-1.09-.38Z"/>
      <path class="st6" d="M129.84,53.6v2.53c0,.48-.09.84-.27,1.07-.32.43-.98.64-1.98.64-.72,0-1.28-.12-1.66-.35-.22-.13-.38-.32-.47-.55-.08-.23-.13-.5-.13-.82v-2.53c0-.07-.02-.12-.05-.16-.03-.04-.09-.06-.17-.09v-.11h1.42v.11c-.08.02-.13.05-.17.08-.03.04-.05.09-.05.16v2.25c0,.26.01.45.04.58.03.12.08.23.16.31.21.23.58.34,1.09.34s.88-.11,1.09-.34c.08-.08.13-.19.16-.31.03-.12.04-.32.04-.58v-2.25c0-.07-.02-.12-.05-.16-.03-.04-.09-.06-.17-.09v-.11h1.34v.11c-.08.02-.14.05-.17.09-.03.04-.05.09-.05.16Z"/>
      <path class="st6" d="M135.19,56.22l.63.94-.09.06c-.06-.06-.11-.09-.15-.09s-.15.05-.34.16c-.38.22-.7.37-.96.44-.26.08-.57.11-.93.11-.72,0-1.3-.17-1.76-.51-.27-.2-.48-.44-.64-.73-.18-.33-.27-.7-.27-1.1,0-.55.16-1.02.48-1.43.48-.61,1.21-.91,2.19-.91.36,0,.67.04.93.11.26.07.58.22.97.44.18.1.3.16.34.16s.09-.03.15-.09l.09.06-.63.94-.09-.06s0-.06,0-.09c0-.06-.03-.12-.08-.18-.06-.06-.15-.12-.3-.2-.39-.22-.81-.33-1.25-.33-.52,0-.93.13-1.24.39-.36.3-.55.7-.55,1.18s.18.88.55,1.18c.31.26.72.39,1.24.39.44,0,.86-.11,1.25-.33.14-.08.24-.15.3-.2.06-.06.08-.12.08-.18,0-.02,0-.05,0-.09l.09-.06Z"/>
      <path class="st6" d="M140.26,55.8h-2.62v1.63c0,.07.02.12.05.15.03.04.09.06.16.08v.11h-1.42v-.11c.08-.02.14-.05.17-.09.03-.04.05-.09.05-.15v-3.83c0-.07-.02-.12-.05-.15-.03-.04-.09-.06-.17-.09v-.11h1.42v.11c-.08.02-.14.05-.17.08-.03.04-.05.09-.05.15v1.46h2.62v-1.46c0-.07-.02-.12-.05-.15-.03-.04-.09-.06-.17-.08v-.11h1.42v.11c-.08.02-.14.05-.17.09-.03.04-.05.09-.05.15v3.83c0,.07.02.12.05.15.03.04.09.06.17.09v.11h-1.42v-.11c.08-.02.13-.05.16-.08.03-.04.05-.09.05-.15v-1.63Z"/>
      <path class="st6" d="M146.48,53.18c.79,0,1.42.21,1.88.64.49.45.74,1.02.74,1.73,0,.43-.12.84-.35,1.21-.46.73-1.21,1.1-2.26,1.1-.79,0-1.41-.21-1.87-.64-.25-.23-.44-.5-.57-.82-.11-.28-.17-.57-.17-.88,0-.45.12-.87.35-1.24.45-.72,1.2-1.08,2.25-1.09ZM146.49,53.94c-.43,0-.79.13-1.08.38-.34.3-.51.7-.51,1.19s.17.88.51,1.19c.29.26.65.38,1.09.38s.8-.13,1.09-.38c.17-.15.3-.34.39-.56.08-.2.12-.4.12-.61,0-.51-.17-.91-.51-1.21-.29-.25-.66-.38-1.09-.38Z"/>
      <path class="st6" d="M151.02,55.79v1.63c0,.07.02.12.05.16.03.04.09.06.16.08v.11h-1.42v-.11c.08-.02.14-.05.17-.09.03-.04.05-.09.05-.16v-3.82c0-.07-.02-.12-.05-.16-.03-.04-.09-.06-.17-.09v-.11h4.02c.07,0,.12-.02.15-.05.04-.03.06-.09.09-.17h.11v1.17h-.11c-.02-.08-.05-.14-.09-.17-.04-.03-.09-.05-.15-.05h-2.82v1.08h1.84c.07,0,.12-.02.16-.05.04-.03.06-.09.09-.16h.11v1.14h-.11c-.02-.08-.05-.13-.09-.16-.04-.03-.09-.05-.16-.05h-1.84Z"/>
      <path class="st6" d="M157.68,57.03h2.79c.07,0,.12-.02.16-.05.04-.03.06-.09.09-.17h.11v1.17h-.11c-.02-.08-.05-.13-.09-.17-.04-.03-.09-.05-.16-.05h-4v-.11c.08-.02.14-.05.17-.09.03-.04.05-.09.05-.16v-3.82c0-.07-.02-.12-.05-.16-.03-.04-.09-.06-.17-.09v-.11h1.42v.11c-.08.02-.14.05-.17.08-.03.04-.05.09-.05.16v3.42Z"/>
      <path class="st6" d="M161.51,57.42v-3.82c0-.07-.02-.12-.05-.15-.03-.04-.09-.06-.17-.09v-.11h1.42v.11c-.08.02-.14.05-.17.08-.03.04-.05.09-.05.15v3.82c0,.07.02.12.05.16.03.04.09.06.16.08v.11h-1.42v-.11c.08-.02.14-.05.17-.09.03-.04.05-.09.05-.16Z"/>
      <path class="st6" d="M164.74,55.79v1.63c0,.07.02.12.05.16.03.04.09.06.16.08v.11h-1.42v-.11c.08-.02.14-.05.17-.09.03-.04.05-.09.05-.16v-3.82c0-.07-.02-.12-.05-.16-.03-.04-.09-.06-.17-.09v-.11h4.02c.07,0,.12-.02.15-.05.04-.03.06-.09.09-.17h.11v1.17h-.11c-.02-.08-.05-.14-.09-.17-.04-.03-.09-.05-.15-.05h-2.82v1.08h1.84c.07,0,.12-.02.16-.05.04-.03.06-.09.09-.16h.11v1.14h-.11c-.02-.08-.05-.13-.09-.16-.04-.03-.09-.05-.16-.05h-1.84Z"/>
      <path class="st6" d="M169.7,55.79v1.24h2.92c.07,0,.12-.02.15-.05.04-.03.06-.09.09-.17h.11v1.17h-.11c-.02-.08-.05-.13-.09-.17-.04-.03-.09-.05-.15-.05h-4.13v-.11c.08-.02.14-.05.17-.09.03-.04.05-.09.05-.16v-3.82c0-.07-.02-.12-.05-.16-.03-.04-.09-.06-.17-.09v-.11h4.05c.07,0,.12-.02.15-.05.04-.03.06-.09.09-.16h.11v1.17h-.11c-.02-.08-.05-.13-.09-.16-.04-.03-.09-.05-.15-.05h-2.84v1.07h1.84c.07,0,.12-.02.15-.05.04-.03.06-.09.09-.17h.11v1.14h-.11c-.02-.08-.05-.13-.09-.16-.04-.03-.09-.05-.15-.05h-1.84Z"/>
    </g>
  </g>
  <g>
    <g>
      <rect class="st5" x="4.84" y="5.02" width="36.96" height="37.43"/>
      <rect class="st4" x="6.28" y="6.48" width="34.08" height="34.52"/>
      <polygon class="st0" points="23.29 17.6 23.87 6.48 24.08 6.48 23.79 17.62 25.31 6.48 25.51 6.48 24.3 17.68 26.78 6.48 26.98 6.48 24.79 17.79 28.3 6.48 28.49 6.48 25.28 17.93 29.9 6.48 30.09 6.48 25.75 18.12 31.62 6.48 31.79 6.48 26.21 18.34 33.48 6.48 33.63 6.48 26.64 18.61 35.55 6.48 35.67 6.48 27.06 18.91 37.89 6.48 37.96 6.48 27.44 19.24 40.36 6.7 40.36 6.73 27.8 19.6 40.36 9.31 40.36 9.4 28.12 20 40.36 11.58 40.36 11.71 28.42 20.42 40.36 13.61 40.36 13.77 28.67 20.86 40.36 15.45 40.36 15.62 28.89 21.33 40.36 17.15 40.36 17.34 29.07 21.81 40.36 18.75 40.36 18.95 29.21 22.3 40.36 20.27 40.36 20.48 29.31 22.8 40.36 21.75 40.36 21.96 29.36 23.31 40.36 23.2 40.36 23.41 29.38 23.83 40.36 24.65 40.36 24.86 29.35 24.34 40.36 26.11 40.36 26.32 29.28 24.85 40.36 27.61 40.36 27.81 29.16 25.35 40.36 29.17 40.36 29.37 29.01 25.84 40.36 30.82 40.36 31.01 28.82 26.31 40.36 32.59 40.36 32.76 28.58 26.77 40.36 34.52 40.36 34.67 28.31 27.2 40.36 36.68 40.36 36.79 28.01 27.62 40.36 39.13 40.36 39.2 27.67 28 39.46 40.99 39.41 40.99 27.31 28.35 36.98 40.99 36.88 40.99 26.91 28.68 34.8 40.99 34.66 40.99 26.49 28.96 32.85 40.99 32.69 40.99 26.05 29.21 31.07 40.99 30.89 40.99 25.58 29.42 29.42 40.99 29.23 40.99 25.11 29.59 27.86 40.99 27.67 40.99 24.62 29.73 26.37 40.99 26.17 40.99 24.12 29.81 24.92 40.99 24.72 40.99 23.61 29.86 23.49 40.99 23.28 40.99 23.1 29.86 22.06 40.99 21.85 40.99 22.6 29.82 20.61 40.99 20.4 40.99 22.1 29.74 19.12 40.99 18.92 40.99 21.61 29.62 17.56 40.99 17.36 40.99 21.13 29.45 15.9 40.99 15.72 40.99 20.66 29.24 14.12 40.99 13.95 40.99 20.22 29 12.16 40.99 12.02 40.99 19.79 28.72 9.97 40.99 9.86 40.99 19.39 28.4 7.46 40.99 7.41 40.99 19.02 28.05 6.28 39.41 6.28 39.35 18.68 27.67 6.28 36.99 6.28 36.88 18.37 27.26 6.28 34.85 6.28 34.7 18.09 26.83 6.28 32.92 6.28 32.75 17.86 26.38 6.28 31.16 6.28 30.97 17.66 25.91 6.28 29.51 6.28 29.31 17.5 25.42 6.28 27.95 6.28 27.75 17.38 24.92 6.28 26.45 6.28 26.25 17.3 24.41 6.28 24.99 6.28 24.78 17.27 23.9 6.28 23.54 6.28 23.33 17.28 23.38 6.28 22.09 6.28 21.88 17.33 22.87 6.28 20.61 6.28 20.41 17.42 22.37 6.28 19.09 6.28 18.89 17.55 21.87 6.28 17.49 6.28 17.29 17.73 21.39 6.28 15.78 6.28 15.6 17.94 20.92 6.28 13.94 6.28 13.78 18.19 20.48 6.28 11.9 6.28 11.77 18.48 20.05 6.28 9.61 6.28 9.51 18.8 19.66 6.28 6.97 6.28 6.94 19.15 19.29 8.47 6.48 8.55 6.48 19.53 18.95 10.79 6.48 10.91 6.48 19.94 18.65 12.84 6.48 12.99 6.48 20.37 18.38 14.7 6.48 14.87 6.48 20.83 18.15 16.41 6.48 16.59 6.48 21.3 17.95 18.01 6.48 18.21 6.48 21.78 17.8 19.53 6.48 19.73 6.48 22.28 17.69 21 6.48 21.21 6.48 22.78 17.63 22.44 6.48 22.65 6.48 23.29 17.6"/>
      <path class="st1" d="M24,24.65c-.27-.13-.53-.26-.78-.39-.04-.02-.06-.03-.06-.03,0,0-.02-.01-.03-.02-.92-.48-1.76-.99-2.53-1.51-6.05-3.93-6.96-7.03-6.96-7.03h0c-.13-.3-.16-.44-.16-.44,0,0,0,0,0,0-.52-1.51-.05-2.65,1.21-1.42.97.95,2,1.58,2.94,1.96,2.16.89,3.39,0,3.39,0,0,0,0,0,0,0,.6-.41.84-.97-.12-1.24-1.23-.34-2.28-1.58-3.05-2.85-.17-.24-.29-.5-.29-.5-.11-.21-.21-.41-.31-.6,0,0,0-.01,0-.02-.98-1.79-2.17-2.71-2.78-3.1-.15-.08-.3-.17-.47-.26-.05-.02-.09-.05-.13-.07-.18-.1-.38-.2-.59-.31-.25-.13-.51-.24-.78-.34h-6.22v3c.16.63.32,1.3.5,2,.62,2.45,1.52,4.67,1.52,4.67,1.67,3.89,4.35,6.08,6.71,7.35,0,0,0,0,0,0,4.14,2.29,7.41,2.99,8.9,3.2.32.06.62.09.86.09,0,0,0,0,0,0h0c.32,0,.57-.08.7-.24.69-.85-1.47-1.9-1.48-1.9"/>
      <path class="st2" d="M22.96,22.55c.27.13.52.27.78.4.04.02.06.03.06.03,0,0,.02,0,.03.02.91.49,1.74,1.02,2.5,1.56,5.98,4.03,6.84,7.14,6.84,7.14.13.3.15.45.15.45,0,0,0,0,0,0,.49,1.52,0,2.65-1.23,1.4-.95-.96-1.98-1.61-2.9-2.01-2.15-.93-3.39-.06-3.39-.06t0,0c-.61.39-.85.96.1,1.24,1.22.37,2.26,1.63,3,2.91.16.25.28.51.28.51.11.21.21.41.3.61,0,0,0,.01,0,.02.95,1.8,2.12,2.75,2.73,3.14.14.09.3.18.46.27.05.03.09.05.13.07.18.1.38.21.58.32.31.17.63.31.97.43h6.02v-3.21c-.13-.56-.27-1.15-.41-1.76-.58-2.46-1.45-4.69-1.45-4.69-1.6-3.92-4.25-6.15-6.58-7.46,0,0,0,0,0,0-4.1-2.37-7.36-3.12-8.84-3.35-.32-.06-.61-.1-.86-.1h0c-.32,0-.57.07-.7.22-.7.84,1.44,1.93,1.44,1.93"/>
    </g>
    <path class="st3" d="M173.15,20.95h-4.21v-.33c.37,0,.56-.19.56-.57v-5.78h-9.54v5.78c0,.38.19.57.58.57v.33h-4.26v-.33c.39,0,.58-.19.58-.57V6.18c0-.38-.2-.57-.58-.57v-.33h4.26v.33c-.39,0-.58.19-.58.57v5.37h9.54v-5.37c0-.38-.19-.57-.56-.57v-.33h4.21v.33c-.37,0-.56.19-.56.57v13.88c0,.38.19.57.56.57v.33ZM149.83,16.17c0,1.49-.7,2.69-2.11,3.6-1.47.96-3.5,1.44-6.09,1.44-1.47,0-2.77-.14-3.91-.44-.78-.19-1.48-.45-2.11-.77-.54-.29-.83-.44-.86-.44-.17,0-.34.09-.51.26l-.28-.23,1.93-3.5.33.15v.44c0,.45.62.88,1.85,1.31,1.32.46,2.8.69,4.44.69,1.23,0,2.28-.22,3.12-.66.84-.44,1.27-1.03,1.27-1.79,0-.84-.57-1.37-1.73-1.59-.17-.04-1.75-.16-4.74-.39-1.95-.14-3.32-.41-4.14-.82-1.24-.6-1.85-1.65-1.85-3.16s.61-2.72,1.83-3.68c1.35-1.06,3.23-1.59,5.63-1.59,1.42,0,2.71.15,3.86.44.78.19,1.51.45,2.21.8.59.29.91.44.96.44.17,0,.3-.07.38-.2l.35.13-1.75,3.29-.33-.13s.03-.2.03-.49c0-.27-.51-.62-1.52-1.03-1.24-.48-2.62-.72-4.14-.72-3.06,0-4.59.7-4.59,2.11,0,.82.61,1.34,1.83,1.57.22.03,1.45.1,3.68.18,2.34.09,4.01.42,5.03,1,1.28.74,1.93,2,1.93,3.78ZM125.01,9.88c0-1.39-1.1-2.08-3.3-2.08h-5.89v4.11h6.88c1.54,0,2.31-.68,2.31-2.03ZM128.63,20.95h-4.7v-.33c.12,0,.19-.02.2-.05v-.31c0-.05-.18-.34-.54-.87l-3.29-4.96h-4.49v5.63c0,.38.17.57.51.57v.33h-4.11v-.33c.34,0,.51-.19.51-.57V6.25c0-.43-.17-.64-.51-.64v-.33h9.36c1.96,0,3.52.37,4.67,1.11,1.23.79,1.85,1.95,1.85,3.49,0,1.4-.44,2.51-1.32,3.31-.76.69-1.74,1.1-2.94,1.23l3.76,5.5c.22.31.38.5.47.58.1.08.28.12.57.12v.33ZM100.28,14.22l-2.63-5.68-2.54,5.68h5.17ZM106.76,20.95h-4.26v-.33c.27,0,.41-.1.41-.31,0-.08-.08-.31-.25-.67l-1.35-2.9h-7.26l-1.17,2.62c-.19.41-.28.7-.28.87,0,.26.14.39.43.39v.33h-4.01v-.33c.25,0,.44-.09.56-.28.07-.19.14-.39.23-.59l5.76-12.98c.17-.38.25-.63.25-.75,0-.27-.1-.41-.3-.41v-.33h4.57v.33c-.2,0-.3.09-.3.28,0,.08.11.37.33.85l5.91,13.06c.08.19.17.37.27.54.09.17.25.27.47.28v.33ZM81.61,9.88c0-.89-.27-1.49-.81-1.8-.36-.19-.98-.28-1.88-.28h-5.81v4.06h5.81c.9,0,1.51-.09,1.85-.26.56-.27.84-.85.84-1.72ZM84.71,9.93c0,1.59-.54,2.77-1.62,3.52-.9.62-2.07.93-3.53.93h-6.45v5.71c0,.36.17.54.51.54v.33h-4.16v-.33c.37,0,.56-.18.56-.54V6.23c0-.43-.19-.64-.56-.64v-.31h9.8c3.64,0,5.46,1.55,5.46,4.65ZM63.04,16.17c0,1.49-.7,2.69-2.11,3.6-1.47.96-3.5,1.44-6.09,1.44-1.47,0-2.78-.14-3.91-.44-.78-.19-1.48-.45-2.11-.77-.54-.29-.83-.44-.86-.44-.17,0-.34.09-.51.26l-.28-.23,1.93-3.5.33.15v.44c0,.45.62.88,1.85,1.31,1.32.46,2.8.69,4.44.69,1.23,0,2.28-.22,3.12-.66.85-.44,1.27-1.03,1.27-1.79,0-.84-.58-1.37-1.73-1.59-.17-.04-1.75-.16-4.75-.39-1.95-.14-3.32-.41-4.14-.82-1.24-.6-1.85-1.65-1.85-3.16s.61-2.72,1.83-3.68c1.35-1.06,3.23-1.59,5.63-1.59,1.42,0,2.71.15,3.86.44.78.19,1.51.45,2.21.8.59.29.91.44.96.44.17,0,.3-.07.38-.2l.35.13-1.75,3.29-.33-.13s.03-.2.03-.49c0-.27-.51-.62-1.52-1.03-1.24-.48-2.61-.72-4.14-.72-3.06,0-4.59.7-4.59,2.11,0,.82.61,1.34,1.83,1.57.22.03,1.45.1,3.68.18,2.33.09,4.01.42,5.02,1,1.29.74,1.93,2,1.93,3.78Z"/>
    <rect class="st3" x="47.18" y="26.22" width="125.96" height=".36"/>
    <path class="st4" d="M166.58,40.45h5.84c.15,0,.25-.03.33-.1.07-.06.14-.18.18-.34h.23v2.44h-.23c-.05-.17-.11-.28-.18-.34-.07-.06-.18-.1-.33-.1h-8.37v-.23c.17-.05.28-.11.34-.18.06-.07.1-.18.1-.33v-7.99c0-.14-.03-.25-.1-.33-.06-.07-.18-.14-.34-.18v-.23h2.97v.23c-.17.04-.28.1-.35.18-.06.08-.1.19-.1.33v7.17ZM152.16,38.29l-1.53-3.34-1.56,3.34h3.08ZM152.75,39.59h-4.29l-.65,1.33c-.09.19-.14.33-.14.44,0,.21.16.35.47.43v.23h-3.15v-.23c.18-.04.33-.1.43-.19.1-.09.21-.27.33-.54l3.5-7.26c.11-.23.16-.42.16-.55,0-.21-.13-.36-.4-.46v-.23h3.37v.23c-.28.08-.41.21-.41.41,0,.13.04.28.13.46l3.62,7.28c.16.31.29.52.4.63.12.11.27.19.47.22v.23h-3.51v-.23c.31-.05.46-.19.46-.43,0-.1-.05-.24-.14-.43l-.66-1.33ZM135.63,34.11v7.17c0,.14.03.25.1.33.07.07.18.13.35.18v.23h-2.97v-.23c.16-.05.28-.11.35-.18.06-.07.1-.18.1-.33v-7.17h-2.94c-.13,0-.24.03-.32.1-.07.06-.14.18-.18.35h-.23v-2.44h.23c.05.17.11.28.18.35.07.06.18.09.32.09h7.96c.14,0,.25-.03.33-.09.08-.06.14-.18.18-.35h.23v2.44h-.23c-.04-.17-.11-.28-.18-.35-.07-.06-.18-.1-.33-.1h-2.93ZM119.77,41.28v-8c0-.14-.03-.25-.1-.32-.06-.07-.18-.14-.34-.18v-.23h2.97v.23c-.17.04-.28.1-.34.18-.07.08-.1.18-.1.32v8c0,.14.03.25.1.33.07.08.18.14.34.18v.23h-2.97v-.23c.17-.05.28-.11.34-.18.06-.07.1-.18.1-.33ZM104.31,36.61h3.17c.63,0,1.08-.07,1.33-.2.16-.09.3-.23.4-.42.1-.19.15-.4.15-.63s-.05-.43-.15-.62c-.1-.19-.23-.33-.4-.42-.25-.13-.69-.2-1.33-.2h-3.17v2.5ZM104.31,38.17v3.12c0,.14.03.25.1.32.07.08.18.14.34.18v.23h-2.97v-.23c.17-.05.28-.11.34-.18.07-.07.1-.18.1-.32v-8c0-.14-.03-.25-.1-.33-.06-.07-.18-.14-.34-.18v-.23h5.94c.69,0,1.24.05,1.65.14.41.09.77.25,1.08.48.32.23.57.54.75.93.18.4.27.82.27,1.26,0,.64-.17,1.2-.51,1.68-.3.41-.69.7-1.18.87-.49.17-1.17.26-2.05.26h-3.42ZM93.73,33.35l-1.13,2.22-.2-.11s0-.08,0-.11c0-.16-.14-.33-.4-.51-.83-.57-1.8-.86-2.91-.86-.49,0-.93.06-1.31.18-.27.09-.49.23-.67.42-.17.19-.26.39-.26.6,0,.36.22.6.65.73.22.07.7.13,1.44.21l1.09.11c.65.07,1.18.16,1.58.28.4.12.76.29,1.07.51.32.23.57.52.75.89.18.37.28.77.28,1.19,0,.66-.22,1.26-.65,1.77-.39.47-1,.82-1.82,1.05-.61.17-1.27.26-1.97.26-1.26,0-2.5-.3-3.73-.9-.26-.12-.41-.18-.47-.18-.06,0-.16.05-.29.15l-.2-.1,1.03-2.32.2.1v.09c0,.21.1.4.3.57.3.27.77.5,1.4.69.63.19,1.23.29,1.8.29.62,0,1.15-.1,1.58-.31.24-.12.43-.27.58-.46.15-.19.22-.39.22-.6,0-.32-.17-.54-.51-.67-.24-.09-.71-.18-1.44-.25l-1.07-.11c-.72-.08-1.23-.15-1.53-.21-.3-.07-.59-.18-.89-.33-.42-.21-.76-.52-1-.93-.22-.38-.33-.81-.33-1.29,0-.8.28-1.46.83-1.99.72-.69,1.81-1.03,3.27-1.03.61,0,1.17.06,1.7.18.52.12,1.18.35,1.97.68.27.11.43.16.49.16.1,0,.21-.05.34-.16l.2.1ZM71.28,33.98c-.91,0-1.67.27-2.27.81-.72.63-1.08,1.46-1.08,2.49s.36,1.86,1.08,2.49c.61.54,1.37.81,2.29.81s1.68-.27,2.28-.81c.36-.32.63-.71.83-1.17.17-.41.25-.84.25-1.28,0-1.08-.36-1.92-1.08-2.53-.61-.53-1.37-.8-2.29-.81ZM71.28,32.38c1.66,0,2.97.45,3.95,1.34,1.03.93,1.54,2.14,1.54,3.62,0,.9-.25,1.75-.74,2.54-.96,1.53-2.54,2.3-4.74,2.3-1.65,0-2.96-.45-3.93-1.34-.52-.48-.92-1.05-1.18-1.71-.24-.59-.36-1.21-.36-1.85,0-.95.24-1.81.73-2.6.94-1.5,2.51-2.27,4.72-2.3ZM55.19,37.88h-5.48v3.4c0,.14.03.25.1.32.07.08.18.14.34.18v.23h-2.97v-.23c.17-.05.28-.11.34-.18.06-.07.1-.18.1-.32v-8.01c0-.14-.03-.25-.1-.32-.06-.07-.18-.14-.34-.18v-.23h2.97v.23c-.17.04-.28.1-.34.18-.07.08-.1.18-.1.32v3.05h5.48v-3.05c0-.14-.03-.25-.1-.32-.06-.08-.18-.13-.35-.18v-.23h2.97v.23c-.17.04-.28.11-.35.18-.06.07-.1.18-.1.32v8.01c0,.14.03.25.1.32.06.07.18.13.35.18v.23h-2.97v-.23c.16-.04.28-.1.34-.18.07-.08.1-.18.1-.32v-3.4Z"/>
  </g>
</svg>